<svg xmlns="http://www.w3.org/2000/svg" viewBox="0 0 500 500"><g id="freepik--Floor--inject-119"><path d="M418.45,241.51c-93.64-54.07-245-54.06-338,0S-12.1,383.24,81.54,437.3s245,54.07,338,0S512.1,295.58,418.45,241.51Z" style="fill:#fafafa"></path></g><g id="freepik--Shadows--inject-119"><path d="M108.08,370l84.19-48.62,67.19,38.7a44.11,44.11,0,0,1,12-9.76c24-13.84,62.7-13.84,86.51,0s23.69,36.27-.28,50.11a72.53,72.53,0,0,1-16.39,6.77l6.75,3.89a3.06,3.06,0,0,1,0,5.29L270,461.47a12.24,12.24,0,0,1-12.21,0l-149.65-86.2A3.06,3.06,0,0,1,108.08,370Z" style="fill:#e6e6e6"></path><path d="M99.38,344.35c-6.92-4-18.12-4-25,0s-6.84,10.48.08,14.48,18.12,4,25,0S106.31,348.35,99.38,344.35Z" style="fill:#e6e6e6"></path></g><g id="freepik--Plant--inject-119"><path d="M103.69,321.34l-16.77.49-16.77-.49c-.72,11.32,1.49,22.87,4.54,28.5h0A7.69,7.69,0,0,0,78,353.22c5,2.86,13,2.86,17.86,0a7.43,7.43,0,0,0,3.32-3.47C102.23,344.09,104.41,332.61,103.69,321.34Z" style="fill:#fff"></path><path d="M98.74,314.47c6.57,3.79,6.61,9.94.08,13.74s-17.15,3.79-23.72,0-6.6-9.95-.07-13.74S92.17,310.68,98.74,314.47Z" style="fill:#ebebeb"></path><path d="M96.14,316c5.13,3,5.16,7.76.07,10.72s-13.38,3-18.51,0-5.15-7.76-.06-10.72S91,313,96.14,316Z" style="fill:#e0e0e0"></path><g style="opacity:0.15"><path d="M96.14,316c5.13,3,5.16,7.76.07,10.72s-13.38,3-18.51,0-5.15-7.76-.06-10.72S91,313,96.14,316Z"></path></g><path d="M114.5,249.78c-37.8,12.37-38.14,37.65-29.62,55.66,2.15,3.64,8.65,5.6,14.31-16.79l-9.92,1.27,11.56-5.86,3-9-9.65.71,12.25-5.15A180.84,180.84,0,0,1,114.5,249.78Z" style="fill:#95E392"></path><path d="M114.5,249.78c-37.8,12.37-38.14,37.65-29.62,55.66,2.15,3.64,8.65,5.6,14.31-16.79l-9.92,1.27,11.56-5.86,3-9-9.65.71,12.25-5.15A180.84,180.84,0,0,1,114.5,249.78Z" style="opacity:0.2"></path><path d="M114.5,249.78c-37.8,12.37-38.14,37.65-29.62,55.66,2.15,3.64,8.65,5.6,14.31-16.79l-9.92,1.27,11.56-5.86,3-9-9.65.71,12.25-5.15A180.84,180.84,0,0,1,114.5,249.78Z" style="fill:#fff;opacity:0.2"></path><path d="M103.81,256.1c-19.93,15.13-21.73,32.47-16.1,50.57C85.72,290.73,83.56,274.61,103.81,256.1Z" style="fill:#fff"></path><path d="M50.48,275.46c37.26,5.24,41.78,28.73,36.83,46.92-1.39,3.75-7.12,6.65-16.11-13.26l9.45-.46L68.9,305.12l-4.29-7.87,9.11-.93-12.26-2.77A171.55,171.55,0,0,0,50.48,275.46Z" style="fill:#95E392"></path><path d="M50.48,275.46c37.26,5.24,41.78,28.73,36.83,46.92-1.39,3.75-7.12,6.65-16.11-13.26l9.45-.46L68.9,305.12l-4.29-7.87,9.11-.93-12.26-2.77A171.55,171.55,0,0,0,50.48,275.46Z" style="fill:#fff;opacity:0.2"></path><path d="M50.48,275.46c37.26,5.24,41.78,28.73,36.83,46.92-1.39,3.75-7.12,6.65-16.11-13.26l9.45-.46L68.9,305.12l-4.29-7.87,9.11-.93-12.26-2.77A171.55,171.55,0,0,0,50.48,275.46Z" style="opacity:0.1"></path><path d="M61.49,279.57C82.56,290.35,87.12,306.2,84.89,324,84.09,308.82,83.42,293.45,61.49,279.57Z" style="fill:#fff"></path><path d="M125.4,284.26c-34.16.56-40.87,21.23-38.45,38.17.84,3.54,5.68,6.79,16-10.15l-8.48-1.47,11-1.88,4.75-6.61-8.1-1.86,11.35-1.12A156.06,156.06,0,0,1,125.4,284.26Z" style="fill:#95E392"></path><path d="M115,286.74c-20.2,7.35-26.08,21.13-26.06,37.42C91.38,310.57,93.7,296.79,115,286.74Z" style="fill:#fff"></path><path d="M125.4,284.26c-34.16.56-40.87,21.23-38.45,38.17.84,3.54,5.68,6.79,16-10.15l-8.48-1.47,11-1.88,4.75-6.61-8.1-1.86,11.35-1.12A156.06,156.06,0,0,1,125.4,284.26Z" style="fill:#fff;opacity:0.2"></path></g><g id="freepik--side-table--inject-119"><polygon points="156.25 274.53 203.91 302.05 261.11 269.02 213.31 241.33 156.25 274.53" style="opacity:0.1"></polygon><polygon points="254.51 213.71 211.31 188.6 161.81 217.18 161.97 274.05 205.18 299.16 209.54 296.64 209.53 291.8 246.13 270.67 250.32 273.1 254.68 270.58 254.51 213.71" style="fill:#e0e0e0"></polygon><polygon points="246.13 270.67 250.32 273.1 250.3 268.26 246.13 270.67" style="fill:#455a64"></polygon><polygon points="246.13 270.67 250.32 273.1 250.3 268.26 246.13 270.67" style="fill:#fff;opacity:0.30000000000000004"></polygon><polygon points="250.2 244.84 250.2 244.79 250.2 244.79 250.2 244.79 250.2 244.84" style="fill:#787878"></polygon><rect x="229.85" y="233.04" height="47" style="fill:#cfcfcf"></rect><polygon points="250.14 221.3 209.43 244.8 209.43 244.8 250.14 221.3" style="fill:#cfcfcf"></polygon><path d="M250.3,268.26l0,4.84,4.36-2.52-.17-56.87L205,242.29l.16,56.87,4.36-2.52V291.8l36.6-21.13ZM209.43,244.8h0l40.71-23.5.05,18.44-40.71,23.5Zm.07,23.49h0l40.7-23.5h0v.05l.05,18.39-40.7,23.5Z" style="fill:#ebebeb"></path><path d="M209.43,244.8h0l40.71-23.5.05,18.44-40.71,23.5Zm.07,23.49h0l40.7-23.5h0v.05l.05,18.39-40.7,23.5Z" style="fill:#fff;opacity:0.30000000000000004"></path><polygon points="250.25 263.23 250.2 244.84 250.2 244.79 209.5 268.29 209.5 268.29 209.55 286.73 250.25 263.23" style="fill:#e0e0e0"></polygon><polygon points="250.19 239.74 250.14 221.3 209.43 244.8 209.43 244.8 209.48 263.24 250.19 239.74" style="fill:#e0e0e0"></polygon><polygon points="205.02 242.29 161.81 217.18 161.97 274.05 205.18 299.16 205.02 242.29" style="fill:#f0f0f0"></polygon><polygon points="205.02 242.29 254.51 213.71 211.31 188.6 161.81 217.18 205.02 242.29" style="fill:#f5f5f5"></polygon><path d="M220.62,209.94c-6.92-4-18.12-4-25,0s-6.84,10.48.08,14.48,18.12,4,25,0S227.55,213.94,220.62,209.94Z" style="fill:#e0e0e0"></path><path d="M194.61,192.6l14.07.41,14.07-.41c.61,9.51-1.25,19.19-3.81,23.92h0a6.3,6.3,0,0,1-2.78,2.83,16.5,16.5,0,0,1-15,0,6.22,6.22,0,0,1-2.78-2.9C195.84,211.69,194,202.06,194.61,192.6Z" style="fill:#fff"></path><path d="M198.76,186.84c-5.51,3.18-5.54,8.34-.06,11.53s14.38,3.18,19.9,0,5.54-8.35.06-11.53S204.27,183.66,198.76,186.84Z" style="fill:#ebebeb"></path><path d="M200.94,188.11c-4.3,2.48-4.32,6.51-.05,9s11.23,2.48,15.53,0,4.32-6.51.05-9A17.08,17.08,0,0,0,200.94,188.11Z" style="fill:#e0e0e0"></path><g style="opacity:0.15"><path d="M200.94,188.11c-4.3,2.48-4.32,6.51-.05,9s11.23,2.48,15.53,0,4.32-6.51.05-9A17.08,17.08,0,0,0,200.94,188.11Z"></path></g><path d="M209.85,193a9.27,9.27,0,0,1-8.25,1.88,8.67,8.67,0,0,1-5.79-5.85,16.85,16.85,0,0,0,4.52-3.14,11.6,11.6,0,0,0-6.39.23,6.51,6.51,0,0,1-.49-6.1,11.2,11.2,0,0,1,7.63-.53,10.1,10.1,0,0,0-7.71-2.43,29.6,29.6,0,0,1,1.85-11.85c5.25.27,10.34,2.53,12.05,4.16a19.2,19.2,0,0,1-.58,5.57,4.5,4.5,0,0,0,2.44-3.6c3.28.82,4.68,2.46,5.2,3.71a13.75,13.75,0,0,1-3.11,6.3c3.08-.93,4.33-4.37,4.33-4.37C218.58,184.17,218,192.3,209.85,193Z" style="fill:#455a64"></path><path d="M209.85,193a9.27,9.27,0,0,1-8.25,1.88,8.67,8.67,0,0,1-5.79-5.85,16.85,16.85,0,0,0,4.52-3.14,11.6,11.6,0,0,0-6.39.23,6.51,6.51,0,0,1-.49-6.1,11.2,11.2,0,0,1,7.63-.53,10.1,10.1,0,0,0-7.71-2.43,29.6,29.6,0,0,1,1.85-11.85c5.25.27,10.34,2.53,12.05,4.16a19.2,19.2,0,0,1-.58,5.57,4.5,4.5,0,0,0,2.44-3.6c3.28.82,4.68,2.46,5.2,3.71a13.75,13.75,0,0,1-3.11,6.3c3.08-.93,4.33-4.37,4.33-4.37C218.58,184.17,218,192.3,209.85,193Z" style="opacity:0.2"></path><path d="M210,193.78h0a.31.31,0,0,0,.28-.33c-.5-6.62-4.29-17.56-13.33-26.58a.3.3,0,0,0-.43.43c8.92,8.9,12.66,19.68,13.16,26.2A.3.3,0,0,0,210,193.78Z" style="fill:#f5f5f5"></path><path d="M207.56,196.55A8.62,8.62,0,0,0,221,193a14.58,14.58,0,0,1-4.08-2.77,11.61,11.61,0,0,1,6.05.18,5.63,5.63,0,0,0,.84-5.44,11,11,0,0,0-7.2-.43,10.64,10.64,0,0,1,7.47-2.22,24.18,24.18,0,0,0-1-10.58c-5,.31-10,2.38-11.67,3.84a15.64,15.64,0,0,0,.2,4.95,3.63,3.63,0,0,1-2.07-3.18c-3.14.76-4.55,2.22-5.11,3.34a11,11,0,0,0,2.53,5.55,6.21,6.21,0,0,1-3.79-3.84C199.94,188.77,200,195.94,207.56,196.55Z" style="fill:#455a64"></path><path d="M207.36,197.27a.32.32,0,0,0,.3-.26c.86-5.77,5.05-15.35,14-23.35a.28.28,0,0,0,0-.42.29.29,0,0,0-.42,0c-9.11,8.11-13.36,17.84-14.23,23.71a.31.31,0,0,0,.25.35Z" style="fill:#fff"></path></g><g id="freepik--Folders--inject-119"><polygon points="322.51 54.83 327.13 52.55 342.12 61.21 342.02 99.71 299.6 75.22 299.69 43.37 299.69 41.66 322.51 54.83" style="fill:#95E392"></polygon><polygon points="299.6 84.85 342.02 109.35 342.02 105.58 299.6 81.08 299.6 84.85" style="fill:#95E392"></polygon><polygon points="299.6 88.94 299.6 92.71 322.08 105.69 322.08 101.92 299.6 88.94" style="fill:#95E392"></polygon><polygon points="299.6 84.85 342.02 109.35 342.02 105.58 299.6 81.08 299.6 84.85" style="fill:#95E392;opacity:0.2"></polygon><polygon points="299.6 88.94 299.6 92.71 322.08 105.69 322.08 101.92 299.6 88.94" style="fill:#95E392;opacity:0.2"></polygon><g style="opacity:0.6000000000000001"><polygon points="322.51 54.83 327.13 52.55 342.12 61.21 342.02 99.71 299.6 75.22 299.69 43.37 299.69 41.66 322.51 54.83" style="fill:#fff"></polygon><polygon points="299.6 84.85 342.02 109.35 342.02 105.58 299.6 81.08 299.6 84.85" style="fill:#fff"></polygon><polygon points="299.6 88.94 299.6 92.71 322.08 105.69 322.08 101.92 299.6 88.94" style="fill:#fff"></polygon><polygon points="299.6 84.85 342.02 109.35 342.02 105.58 299.6 81.08 299.6 84.85" style="fill:#fff;opacity:0.2"></polygon><polygon points="299.6 88.94 299.6 92.71 322.08 105.69 322.08 101.92 299.6 88.94" style="fill:#fff;opacity:0.2"></polygon></g><g style="opacity:0.7000000000000001"><path d="M333.32,77.74l.28.77-.28.45c-2.51,4-7.2,4.53-12.54,1.45a24.8,24.8,0,0,1-5.41-4.34L310.32,79l-1.6-2.77,4.53-2.59a33.57,33.57,0,0,1-4.95-9.07l-.28-.78.28-.45c2.51-4,7.19-4.52,12.54-1.44a24.75,24.75,0,0,1,5.41,4.33l5.05-2.87,1.6,2.77-4.53,2.58A33.78,33.78,0,0,1,333.32,77.74Zm-12.53.05C325.07,80.26,328.85,80,331,77a28.31,28.31,0,0,0-4.3-7.41l-1.74,1a8.93,8.93,0,0,1,.72,3.34c0,3.09-2.21,4.35-4.9,2.8a9.19,9.19,0,0,1-2.54-2.31l-1.09.63a19.28,19.28,0,0,0,3.63,2.73m-5.88-5.15,1.74-1a9.14,9.14,0,0,1-.72-3.35c0-3.09,2.21-4.34,4.9-2.78a9,9,0,0,1,2.54,2.3l1.1-.63a20.66,20.66,0,0,0-3.64-2.74c-4.28-2.47-8.06-2.17-10.22.78a28.09,28.09,0,0,0,4.3,7.4m3.44-2,3.32-1.89a4.33,4.33,0,0,0-.85-.66c-1.44-.83-2.61-.16-2.61,1.48a3.66,3.66,0,0,0,.14,1.07m4.92.88L320,73.46a4.33,4.33,0,0,0,.85.66c1.44.83,2.61.16,2.62-1.49a4.44,4.44,0,0,0-.15-1.06" style="fill:#fff"></path></g><polygon points="322.51 120.91 327.13 118.63 342.12 127.28 342.02 165.79 299.6 141.29 299.69 109.44 299.69 107.73 322.51 120.91" style="fill:#95E392"></polygon><polygon points="299.6 150.93 342.02 175.42 342.02 171.65 299.6 147.16 299.6 150.93" style="fill:#95E392"></polygon><polygon points="299.6 155.02 299.6 158.78 322.08 171.76 322.08 168 299.6 155.02" style="fill:#95E392"></polygon><polygon points="299.6 150.93 342.02 175.42 342.02 171.65 299.6 147.16 299.6 150.93" style="fill:#95E392;opacity:0.2"></polygon><polygon points="299.6 155.02 299.6 158.78 322.08 171.76 322.08 168 299.6 155.02" style="fill:#95E392;opacity:0.2"></polygon><g style="opacity:0.6000000000000001"><polygon points="322.51 120.91 327.13 118.63 342.12 127.28 342.02 165.79 299.6 141.29 299.69 109.44 299.69 107.73 322.51 120.91" style="fill:#fff"></polygon><polygon points="299.6 150.93 342.02 175.42 342.02 171.65 299.6 147.16 299.6 150.93" style="fill:#fff"></polygon><polygon points="299.6 155.02 299.6 158.78 322.08 171.76 322.08 168 299.6 155.02" style="fill:#fff"></polygon><polygon points="299.6 150.93 342.02 175.42 342.02 171.65 299.6 147.16 299.6 150.93" style="fill:#fff;opacity:0.2"></polygon><polygon points="299.6 155.02 299.6 158.78 322.08 171.76 322.08 168 299.6 155.02" style="fill:#fff;opacity:0.2"></polygon></g><g style="opacity:0.7000000000000001"><path d="M333.32,143.81l.28.78-.28.45c-2.51,4-7.2,4.52-12.54,1.44a24.8,24.8,0,0,1-5.41-4.34L310.32,145l-1.6-2.77,4.53-2.59a33.57,33.57,0,0,1-4.95-9.07l-.28-.77.28-.45c2.51-4,7.19-4.53,12.54-1.45a24.8,24.8,0,0,1,5.41,4.34l5.05-2.88,1.6,2.77-4.53,2.59A33.57,33.57,0,0,1,333.32,143.81Zm-12.53.06c4.28,2.47,8.06,2.17,10.22-.78a28.31,28.31,0,0,0-4.3-7.41l-1.74,1a8.85,8.85,0,0,1,.72,3.34c0,3.09-2.21,4.34-4.9,2.79a9,9,0,0,1-2.54-2.31l-1.09.63a19.78,19.78,0,0,0,3.63,2.74m-5.88-5.15,1.74-1a9.14,9.14,0,0,1-.72-3.35c0-3.09,2.21-4.33,4.9-2.78a9.14,9.14,0,0,1,2.54,2.3l1.1-.62a19.73,19.73,0,0,0-3.64-2.74c-4.28-2.47-8.06-2.18-10.22.77a28.31,28.31,0,0,0,4.3,7.41m3.44-2,3.32-1.89a4.33,4.33,0,0,0-.85-.66c-1.44-.83-2.61-.16-2.61,1.49a3.6,3.6,0,0,0,.14,1.06m4.92.88L320,139.53a4.33,4.33,0,0,0,.85.66c1.44.83,2.61.16,2.62-1.48a4.45,4.45,0,0,0-.15-1.07" style="fill:#fff"></path></g><polygon points="383.7 90.18 388.31 87.9 403.31 96.55 403.21 135.06 360.79 110.56 360.88 78.71 360.88 77 383.7 90.18" style="fill:#95E392"></polygon><polygon points="360.79 120.19 403.21 144.69 403.21 140.92 360.79 116.43 360.79 120.19" style="fill:#95E392"></polygon><polygon points="360.79 124.28 360.79 128.05 383.27 141.03 383.27 137.26 360.79 124.28" style="fill:#95E392"></polygon><polygon points="360.79 120.19 403.21 144.69 403.21 140.92 360.79 116.43 360.79 120.19" style="fill:#95E392;opacity:0.2"></polygon><polygon points="360.79 124.28 360.79 128.05 383.27 141.03 383.27 137.26 360.79 124.28" style="fill:#95E392;opacity:0.2"></polygon><g style="opacity:0.6000000000000001"><polygon points="383.7 90.18 388.31 87.9 403.31 96.55 403.21 135.06 360.79 110.56 360.88 78.71 360.88 77 383.7 90.18" style="fill:#fff"></polygon><polygon points="360.79 120.19 403.21 144.69 403.21 140.92 360.79 116.43 360.79 120.19" style="fill:#fff"></polygon><polygon points="360.79 124.28 360.79 128.05 383.27 141.03 383.27 137.26 360.79 124.28" style="fill:#fff"></polygon><polygon points="360.79 120.19 403.21 144.69 403.21 140.92 360.79 116.43 360.79 120.19" style="fill:#fff;opacity:0.2"></polygon><polygon points="360.79 124.28 360.79 128.05 383.27 141.03 383.27 137.26 360.79 124.28" style="fill:#fff;opacity:0.2"></polygon></g><g style="opacity:0.7000000000000001"><path d="M394.51,113.08l.28.78-.28.45c-2.51,4-7.2,4.52-12.54,1.44a24.8,24.8,0,0,1-5.41-4.34l-5.05,2.88-1.6-2.77,4.53-2.59a33.57,33.57,0,0,1-4.95-9.07l-.28-.78.28-.44c2.51-4,7.19-4.53,12.54-1.45a24.8,24.8,0,0,1,5.41,4.34l5.05-2.88,1.6,2.77L389.56,104A33.85,33.85,0,0,1,394.51,113.08Zm-12.53,0c4.28,2.47,8.06,2.18,10.22-.77a28.31,28.31,0,0,0-4.3-7.41l-1.74,1a8.85,8.85,0,0,1,.72,3.34c0,3.09-2.21,4.34-4.9,2.79a9,9,0,0,1-2.54-2.31l-1.09.63a19.28,19.28,0,0,0,3.63,2.73M376.1,108l1.74-1a8.94,8.94,0,0,1-.72-3.35c0-3.09,2.21-4.33,4.9-2.78a9.14,9.14,0,0,1,2.54,2.3l1.1-.62A19.73,19.73,0,0,0,382,99.81c-4.28-2.47-8.06-2.18-10.22.77a28.31,28.31,0,0,0,4.3,7.41m3.44-2,3.32-1.89a4.33,4.33,0,0,0-.85-.66c-1.44-.83-2.61-.16-2.61,1.49a3.6,3.6,0,0,0,.14,1.06m4.92.88-3.32,1.89a4.33,4.33,0,0,0,.85.66c1.44.83,2.61.16,2.61-1.49a4,4,0,0,0-.14-1.06" style="fill:#fff"></path></g><polygon points="383.7 156.25 388.31 153.97 403.31 162.63 403.21 201.13 360.79 176.63 360.88 144.79 360.88 143.08 383.7 156.25" style="fill:#95E392"></polygon><polygon points="360.79 186.27 403.21 210.76 403.21 206.99 360.79 182.5 360.79 186.27" style="fill:#95E392"></polygon><polygon points="360.79 190.36 360.79 194.13 383.27 207.11 383.27 203.34 360.79 190.36" style="fill:#95E392"></polygon><polygon points="360.79 186.27 403.21 210.76 403.21 206.99 360.79 182.5 360.79 186.27" style="fill:#95E392;opacity:0.2"></polygon><polygon points="360.79 190.36 360.79 194.13 383.27 207.11 383.27 203.34 360.79 190.36" style="fill:#95E392;opacity:0.2"></polygon><g style="opacity:0.6000000000000001"><polygon points="383.7 156.25 388.31 153.97 403.31 162.63 403.21 201.13 360.79 176.63 360.88 144.79 360.88 143.08 383.7 156.25" style="fill:#fff"></polygon><polygon points="360.79 186.27 403.21 210.76 403.21 206.99 360.79 182.5 360.79 186.27" style="fill:#fff"></polygon><polygon points="360.79 190.36 360.79 194.13 383.27 207.11 383.27 203.34 360.79 190.36" style="fill:#fff"></polygon><polygon points="360.79 186.27 403.21 210.76 403.21 206.99 360.79 182.5 360.79 186.27" style="fill:#fff;opacity:0.2"></polygon><polygon points="360.79 190.36 360.79 194.13 383.27 207.11 383.27 203.34 360.79 190.36" style="fill:#fff;opacity:0.2"></polygon></g><g style="opacity:0.7000000000000001"><path d="M394.51,179.16l.28.77-.28.45c-2.51,4-7.2,4.52-12.54,1.44a24.75,24.75,0,0,1-5.41-4.33l-5.05,2.87-1.6-2.77,4.53-2.58a33.63,33.63,0,0,1-4.95-9.08l-.28-.77.28-.45c2.51-4,7.19-4.53,12.54-1.44a24.46,24.46,0,0,1,5.41,4.33l5.05-2.88,1.6,2.77-4.53,2.59A33.76,33.76,0,0,1,394.51,179.16Zm-12.53.05c4.28,2.47,8.06,2.17,10.22-.78a28.09,28.09,0,0,0-4.3-7.4l-1.74,1a8.85,8.85,0,0,1,.72,3.34c0,3.09-2.21,4.34-4.9,2.79a9,9,0,0,1-2.54-2.31l-1.09.63a19.78,19.78,0,0,0,3.63,2.74m-5.88-5.15,1.74-1a8.93,8.93,0,0,1-.72-3.34c0-3.09,2.21-4.34,4.9-2.79a9.14,9.14,0,0,1,2.54,2.3l1.1-.62a19.73,19.73,0,0,0-3.64-2.74c-4.28-2.47-8.06-2.17-10.22.77a28.14,28.14,0,0,0,4.3,7.41m3.44-2,3.32-1.89a4.33,4.33,0,0,0-.85-.66c-1.44-.83-2.61-.16-2.61,1.49a3.6,3.6,0,0,0,.14,1.06m4.92.88-3.32,1.9a4.75,4.75,0,0,0,.85.66c1.44.83,2.61.16,2.61-1.49a4.09,4.09,0,0,0-.14-1.07" style="fill:#fff"></path></g><polygon points="444.89 125.52 449.5 123.24 464.5 131.89 464.4 170.4 421.98 145.9 422.07 114.05 422.07 112.34 444.89 125.52" style="fill:#95E392"></polygon><polygon points="421.98 155.54 464.4 180.03 464.4 176.26 421.98 151.77 421.98 155.54" style="fill:#95E392"></polygon><polygon points="421.98 159.63 421.98 163.39 444.46 176.38 444.46 172.61 421.98 159.63" style="fill:#95E392"></polygon><polygon points="421.98 155.54 464.4 180.03 464.4 176.26 421.98 151.77 421.98 155.54" style="fill:#95E392;opacity:0.2"></polygon><polygon points="421.98 159.63 421.98 163.39 444.46 176.38 444.46 172.61 421.98 159.63" style="fill:#95E392;opacity:0.2"></polygon><g style="opacity:0.6000000000000001"><polygon points="444.89 125.52 449.5 123.24 464.5 131.89 464.4 170.4 421.98 145.9 422.07 114.05 422.07 112.34 444.89 125.52" style="fill:#fff"></polygon><polygon points="421.98 155.54 464.4 180.03 464.4 176.26 421.98 151.77 421.98 155.54" style="fill:#fff"></polygon><polygon points="421.98 159.63 421.98 163.39 444.46 176.38 444.46 172.61 421.98 159.63" style="fill:#fff"></polygon><polygon points="421.98 155.54 464.4 180.03 464.4 176.26 421.98 151.77 421.98 155.54" style="fill:#fff;opacity:0.2"></polygon><polygon points="421.98 159.63 421.98 163.39 444.46 176.38 444.46 172.61 421.98 159.63" style="fill:#fff;opacity:0.2"></polygon></g><g style="opacity:0.7000000000000001"><path d="M455.7,148.43l.28.77-.28.45c-2.51,4-7.2,4.52-12.54,1.44a24.8,24.8,0,0,1-5.41-4.34l-5.05,2.88-1.6-2.77,4.53-2.59a33.42,33.42,0,0,1-4.95-9.07l-.28-.77.28-.45c2.51-4,7.19-4.53,12.54-1.44a24.46,24.46,0,0,1,5.41,4.33l5.05-2.88,1.6,2.77-4.53,2.59A33.76,33.76,0,0,1,455.7,148.43Zm-12.53,0c4.28,2.47,8.06,2.17,10.22-.78a28.06,28.06,0,0,0-4.31-7.41l-1.73,1a8.85,8.85,0,0,1,.72,3.34c0,3.09-2.21,4.34-4.9,2.79a9,9,0,0,1-2.54-2.31l-1.1.63a20.18,20.18,0,0,0,3.64,2.74m-5.88-5.15,1.74-1a8.93,8.93,0,0,1-.72-3.34c0-3.1,2.21-4.34,4.9-2.79a9.14,9.14,0,0,1,2.54,2.3l1.09-.62a19.34,19.34,0,0,0-3.63-2.74c-4.28-2.47-8.06-2.18-10.22.77a28.31,28.31,0,0,0,4.3,7.41m3.44-2,3.32-1.89a4.64,4.64,0,0,0-.85-.66c-1.44-.83-2.61-.16-2.61,1.49a3.6,3.6,0,0,0,.14,1.06m4.92.88-3.32,1.89a4.81,4.81,0,0,0,.85.67c1.44.82,2.61.16,2.61-1.49a4,4,0,0,0-.14-1.07" style="fill:#fff"></path></g><polygon points="444.89 191.59 449.5 189.31 464.5 197.97 464.4 236.47 421.98 211.98 422.07 180.13 422.07 178.42 444.89 191.59" style="fill:#95E392"></polygon><polygon points="421.98 221.61 464.4 246.1 464.4 242.34 421.98 217.84 421.98 221.61" style="fill:#95E392"></polygon><polygon points="421.98 225.7 421.98 229.47 444.46 242.45 444.46 238.68 421.98 225.7" style="fill:#95E392"></polygon><polygon points="421.98 221.61 464.4 246.1 464.4 242.34 421.98 217.84 421.98 221.61" style="fill:#95E392;opacity:0.2"></polygon><polygon points="421.98 225.7 421.98 229.47 444.46 242.45 444.46 238.68 421.98 225.7" style="fill:#95E392;opacity:0.2"></polygon><g style="opacity:0.6000000000000001"><polygon points="444.89 191.59 449.5 189.31 464.5 197.97 464.4 236.47 421.98 211.98 422.07 180.13 422.07 178.42 444.89 191.59" style="fill:#fff"></polygon><polygon points="421.98 221.61 464.4 246.1 464.4 242.34 421.98 217.84 421.98 221.61" style="fill:#fff"></polygon><polygon points="421.98 225.7 421.98 229.47 444.46 242.45 444.46 238.68 421.98 225.7" style="fill:#fff"></polygon><polygon points="421.98 221.61 464.4 246.1 464.4 242.34 421.98 217.84 421.98 221.61" style="fill:#fff;opacity:0.2"></polygon><polygon points="421.98 225.7 421.98 229.47 444.46 242.45 444.46 238.68 421.98 225.7" style="fill:#fff;opacity:0.2"></polygon></g><g style="opacity:0.7000000000000001"><path d="M455.7,214.5l.28.77-.28.45c-2.51,4-7.2,4.52-12.54,1.44a24.46,24.46,0,0,1-5.41-4.33l-5.05,2.88-1.6-2.78,4.53-2.58a33.63,33.63,0,0,1-4.95-9.08l-.28-.77.28-.45c2.51-4,7.19-4.53,12.54-1.44a24.46,24.46,0,0,1,5.41,4.33l5.05-2.88,1.6,2.78-4.53,2.58A33.91,33.91,0,0,1,455.7,214.5Zm-12.53.05c4.28,2.47,8.06,2.17,10.22-.77a27.9,27.9,0,0,0-4.31-7.41l-1.73,1a8.89,8.89,0,0,1,.72,3.34c0,3.09-2.21,4.34-4.9,2.79a9.14,9.14,0,0,1-2.54-2.3l-1.1.62a19.73,19.73,0,0,0,3.64,2.74m-5.88-5.15,1.74-1a8.89,8.89,0,0,1-.72-3.34c0-3.09,2.21-4.34,4.9-2.79a9.14,9.14,0,0,1,2.54,2.3l1.09-.62a19.34,19.34,0,0,0-3.63-2.74c-4.28-2.47-8.06-2.17-10.22.77a28.14,28.14,0,0,0,4.3,7.41m3.44-2,3.32-1.9a4.64,4.64,0,0,0-.85-.66c-1.44-.83-2.61-.16-2.61,1.49a3.66,3.66,0,0,0,.14,1.07m4.92.87-3.32,1.9a4.75,4.75,0,0,0,.85.66c1.44.83,2.61.16,2.61-1.49a4.09,4.09,0,0,0-.14-1.07" style="fill:#fff"></path></g><polygon points="194.16 78.59 194.14 73.6 194.1 59.63 191.3 57.99 141.92 86.5 133.87 105.14 67.4 143.52 67.68 241.55 70.49 243.19 194.42 171.64 194.16 78.59" style="fill:#95E392"></polygon><polygon points="67.4 143.52 70.21 145.15 70.49 243.19 67.68 241.55 67.4 143.52" style="fill:#fff;opacity:0.2"></polygon><polygon points="133.87 105.14 136.68 106.78 70.21 145.15 67.4 143.52 133.87 105.14" style="fill:#fff;opacity:0.4"></polygon><polygon points="141.92 86.5 144.72 88.14 136.68 106.78 133.87 105.14 141.92 86.5" style="fill:#fff;opacity:0.2"></polygon><polygon points="191.3 57.99 194.1 59.63 144.72 88.14 141.92 86.5 191.3 57.99" style="fill:#fff;opacity:0.4"></polygon><polygon points="197.74 80.95 197.73 75.95 195 74.13 71.06 145.68 71.34 243.72 74.07 245.55 198 173.99 197.74 80.95" style="fill:#95E392"></polygon><polygon points="71.06 145.68 73.79 147.51 74.07 245.55 71.34 243.72 71.06 145.68" style="fill:#fff;opacity:0.2"></polygon><polygon points="197.73 75.95 195 74.13 71.06 145.68 73.79 147.51 197.73 75.95" style="fill:#fff;opacity:0.4"></polygon><polygon points="198 173.99 197.74 80.95 197.73 75.95 195 74.13 194.15 74.62 194.14 73.6 194.1 59.63 191.3 57.99 141.92 86.5 133.87 105.14 67.4 143.52 67.68 241.55 70.49 243.19 70.49 243.19 70.49 243.19 71.34 242.7 71.34 243.72 74.07 245.55 74.07 245.55 74.07 245.55 198 173.99" style="fill:#fff;opacity:0.4"></polygon><g style="opacity:0.7000000000000001"><path d="M170.42,141a17.47,17.47,0,0,0-12.55-8.41l11.33-19.63-4-2.31-12.63,21.87-4.46,7.73L145.31,145l-4.25,7.37-8.32,14.41-4.26,7.37-4.33,7.5a14.46,14.46,0,0,1-10.91-6.09c5.39-13.68,14.87-25.39,25.64-31.61a32,32,0,0,1,9.18-3.7l4.46-7.73a35.48,35.48,0,0,0-13.66,4.85c-13.45,7.77-25.2,22.72-31.44,40l-.7,1.94.71,1.13A17.45,17.45,0,0,0,120,188.82l-11.33,19.63,4.06,2.31,12.62-21.87A35.29,35.29,0,0,0,139,184c13.45-7.76,25.2-22.71,31.44-40l.7-1.95Zm-25.31,13.68a6.45,6.45,0,0,1,.37,2.26A14.41,14.41,0,0,1,139,168.21a6.59,6.59,0,0,1-2.15.83ZM139,177.45a32,32,0,0,1-9.17,3.71l2.74-4.75h0a10.41,10.41,0,0,0,6.43-1.62c6.77-3.91,12.25-13.42,12.23-21.2a10.29,10.29,0,0,0-1.83-6.33l4.33-7.5a14.49,14.49,0,0,1,10.92,6.08C159.22,159.52,149.75,171.23,139,177.45Z" style="fill:#fff"></path><path d="M138.89,146.57c-6.78,3.91-12.27,13.42-12.25,21.2a10.21,10.21,0,0,0,1.84,6.33l4.26-7.37a6.47,6.47,0,0,1-.37-2.27,14.43,14.43,0,0,1,6.54-11.32,6.7,6.7,0,0,1,2.15-.82l4.25-7.37A10.37,10.37,0,0,0,138.89,146.57Z" style="fill:#fff"></path></g><polygon points="250.02 119.67 250 126.92 248.98 126.33 248.99 123.23 247.87 122.58 247.86 125.68 246.87 125.11 246.89 117.87 247.88 118.44 247.87 121.54 248.99 122.19 249 119.09 250.02 119.67" style="fill:#95E392"></polygon><polygon points="251.73 120.66 251.71 127.9 250.71 127.33 250.73 120.09 251.73 120.66" style="fill:#95E392"></polygon><path d="M254,122a2.85,2.85,0,0,1,1.47,2.63v3.67c0,1.16-.49,1.51-1.48.94l-1.57-.91,0-7.24Zm.47,5.78V124a1,1,0,0,0-.5-1l-.56-.33,0,5.18.56.32c.32.19.51.11.51-.41" style="fill:#95E392"></path><path d="M257.69,124.11a2.85,2.85,0,0,1,1.48,2.64v3.67c0,1.15-.49,1.5-1.49.93l-1.56-.9,0-7.25Zm.48,5.78v-3.77a1,1,0,0,0-.5-1l-.57-.32V130l.56.33c.32.18.51.1.51-.42" style="fill:#95E392"></path><polygon points="262.51 126.89 262.5 127.92 260.79 126.93 260.79 128.95 262.15 129.74 262.15 130.77 260.79 129.99 260.78 132.11 262.49 133.09 262.49 134.13 259.79 132.57 259.81 125.33 262.51 126.89" style="fill:#95E392"></polygon><polygon points="266.26 129.05 266.24 136.29 265.23 135.71 264.02 129.76 264 129.75 263.99 135 263.1 134.48 263.12 127.24 264.36 127.95 265.35 132.87 265.37 132.88 265.38 128.54 266.26 129.05" style="fill:#95E392"></polygon><polygon points="262.31 136.81 262.31 139.06 246.89 130.16 246.9 127.91 262.31 136.81" style="fill:#95E392"></polygon><polygon points="257.55 138.1 257.54 140.35 246.88 134.19 246.88 131.94 257.55 138.1" style="fill:#95E392"></polygon><g style="opacity:0.5"><polygon points="250.02 119.67 250 126.92 248.98 126.33 248.99 123.23 247.87 122.58 247.86 125.68 246.87 125.11 246.89 117.87 247.88 118.44 247.87 121.54 248.99 122.19 249 119.09 250.02 119.67" style="fill:#fff"></polygon><polygon points="251.73 120.66 251.71 127.9 250.71 127.33 250.73 120.09 251.73 120.66" style="fill:#fff"></polygon><path d="M254,122a2.85,2.85,0,0,1,1.47,2.63v3.67c0,1.16-.49,1.51-1.48.94l-1.57-.91,0-7.24Zm.47,5.78V124a1,1,0,0,0-.5-1l-.56-.33,0,5.18.56.32c.32.19.51.11.51-.41" style="fill:#fff"></path><path d="M257.69,124.11a2.85,2.85,0,0,1,1.48,2.64v3.67c0,1.15-.49,1.5-1.49.93l-1.56-.9,0-7.25Zm.48,5.78v-3.77a1,1,0,0,0-.5-1l-.57-.32V130l.56.33c.32.18.51.1.51-.42" style="fill:#fff"></path><polygon points="262.51 126.89 262.5 127.92 260.79 126.93 260.79 128.95 262.15 129.74 262.15 130.77 260.79 129.99 260.78 132.11 262.49 133.09 262.49 134.13 259.79 132.57 259.81 125.33 262.51 126.89" style="fill:#fff"></polygon><polygon points="266.26 129.05 266.24 136.29 265.23 135.71 264.02 129.76 264 129.75 263.99 135 263.1 134.48 263.12 127.24 264.36 127.95 265.35 132.87 265.37 132.88 265.38 128.54 266.26 129.05" style="fill:#fff"></polygon><polygon points="262.31 136.81 262.31 139.06 246.89 130.16 246.9 127.91 262.31 136.81" style="fill:#fff"></polygon><polygon points="257.55 138.1 257.54 140.35 246.88 134.19 246.88 131.94 257.55 138.1" style="fill:#fff"></polygon></g><polygon points="248.5 170.48 248.5 172.89 237.51 166.55 237.52 164.14 248.5 170.48" style="fill:#95E392"></polygon><polygon points="242.54 183.26 242.53 185.66 237.46 182.73 237.47 180.33 242.54 183.26" style="fill:#95E392"></polygon><g style="opacity:0.5"><polygon points="248.5 170.48 248.5 172.89 237.51 166.55 237.52 164.14 248.5 170.48" style="fill:#fff"></polygon><polygon points="242.54 183.26 242.53 185.66 237.46 182.73 237.47 180.33 242.54 183.26" style="fill:#fff"></polygon><polygon points="251.61 184.44 251.6 186.84 237.47 178.69 237.48 176.28 251.61 184.44" style="fill:#fff"></polygon><polygon points="257.14 183.58 257.13 185.98 237.49 174.64 237.49 172.24 257.14 183.58" style="fill:#fff"></polygon><polygon points="257.15 179.53 257.14 181.94 237.5 170.6 237.5 168.19 257.15 179.53" style="fill:#fff"></polygon></g><polygon points="267.88 43.48 256.89 37.13 256.88 41.51 267.87 47.85 267.88 43.48" style="fill:#95E392"></polygon><polygon points="256.84 57.7 261.91 60.63 261.92 58.22 256.85 55.3 256.84 57.7" style="fill:#95E392"></polygon><polygon points="256.85 53.65 270.98 61.8 270.98 59.4 256.86 51.25 256.85 53.65" style="fill:#95E392"></polygon><polygon points="256.86 49.6 276.51 60.94 276.51 58.54 256.87 47.2 256.86 49.6" style="fill:#95E392"></polygon><polygon points="256.88 43.15 256.87 45.56 276.52 56.9 276.53 54.49 256.88 43.15" style="fill:#95E392"></polygon><polygon points="267.88 67.29 256.89 60.94 256.88 63.35 267.87 69.7 267.88 67.29" style="fill:#95E392"></polygon><polygon points="256.88 64.99 256.87 67.4 276.52 78.74 276.53 76.33 256.88 64.99" style="fill:#95E392"></polygon><polygon points="256.87 69.04 256.86 71.44 263.37 75.19 263.37 72.79 256.87 69.04" style="fill:#95E392"></polygon><g style="opacity:0.5"><polygon points="267.88 43.48 256.89 37.13 256.88 41.51 267.87 47.85 267.88 43.48" style="fill:#fff"></polygon><polygon points="256.84 57.7 261.91 60.63 261.92 58.22 256.85 55.3 256.84 57.7" style="fill:#fff"></polygon><polygon points="256.85 53.65 270.98 61.8 270.98 59.4 256.86 51.25 256.85 53.65" style="fill:#fff"></polygon><polygon points="256.86 49.6 276.51 60.94 276.51 58.54 256.87 47.2 256.86 49.6" style="fill:#fff"></polygon><polygon points="256.88 43.15 256.87 45.56 276.52 56.9 276.53 54.49 256.88 43.15" style="fill:#fff"></polygon><polygon points="267.88 67.29 256.89 60.94 256.88 63.35 267.87 69.7 267.88 67.29" style="fill:#fff"></polygon><polygon points="256.88 64.99 256.87 67.4 276.52 78.74 276.53 76.33 256.88 64.99" style="fill:#fff"></polygon><polygon points="256.87 69.04 256.86 71.44 263.37 75.19 263.37 72.79 256.87 69.04" style="fill:#fff"></polygon></g><polygon points="201.36 129.04 182.16 118.11 182.42 117.64 201.36 128.43 239.49 106.47 258.69 117.56 258.42 118.01 239.49 107.08 201.36 129.04" style="fill:#95E392"></polygon><path d="M258.92,115.73a4.1,4.1,0,0,1,1.85,3.21c0,1.18-.84,1.66-1.87,1.06a4.1,4.1,0,0,1-1.85-3.21C257.05,115.61,257.89,115.14,258.92,115.73Z" style="fill:#95E392"></path><polygon points="233.58 171.82 233.05 171.82 233.05 121.34 240.6 125.7 240.34 126.15 233.58 122.26 233.58 171.82" style="fill:#95E392"></polygon><path d="M241.57,124.42a4.1,4.1,0,0,1,1.86,3.21c0,1.18-.84,1.66-1.87,1.07a4.07,4.07,0,0,1-1.85-3.21C239.71,124.31,240.55,123.83,241.57,124.42Z" style="fill:#95E392"></path><ellipse cx="233.32" cy="171.8" rx="1.52" ry="2.62" transform="translate(-54.73 140.49) rotate(-30.16)" style="fill:#95E392"></ellipse><polygon points="28.89 180.16 56.01 164.5 56.03 175.31 28.91 190.96 28.89 180.16" style="fill:#95E392"></polygon><polygon points="28.89 196.67 56.01 181.02 56.03 191.82 28.91 207.47 28.89 196.67" style="fill:#95E392"></polygon><polygon points="28.89 213.19 56.01 197.53 56.03 208.33 28.91 223.99 28.89 213.19" style="fill:#95E392"></polygon><polygon points="28.89 229.7 56.01 214.04 56.03 224.84 28.91 240.5 28.89 229.7" style="fill:#95E392"></polygon><polygon points="28.89 246.21 56.01 230.55 56.03 241.35 28.91 257.01 28.89 246.21" style="fill:#95E392"></polygon><g style="opacity:0.5"><polygon points="28.89 180.16 56.01 164.5 56.03 175.31 28.91 190.96 28.89 180.16" style="fill:#fff"></polygon><polygon points="28.89 196.67 56.01 181.02 56.03 191.82 28.91 207.47 28.89 196.67" style="fill:#fff"></polygon><polygon points="28.89 213.19 56.01 197.53 56.03 208.33 28.91 223.99 28.89 213.19" style="fill:#fff"></polygon><polygon points="28.89 229.7 56.01 214.04 56.03 224.84 28.91 240.5 28.89 229.7" style="fill:#fff"></polygon><polygon points="28.89 246.21 56.01 230.55 56.03 241.35 28.91 257.01 28.89 246.21" style="fill:#fff"></polygon></g><polygon points="289.49 132.89 281.61 128.33 281.61 50.67 289.76 55.38 289.49 55.84 282.14 51.59 282.14 128.03 289.76 132.43 289.49 132.89" style="fill:#95E392"></polygon><path d="M290,53.81A4.1,4.1,0,0,1,291.85,57c0,1.18-.84,1.66-1.87,1.06a4.1,4.1,0,0,1-1.85-3.21C288.13,53.69,289,53.22,290,53.81Z" style="fill:#95E392"></path><path d="M290,130.52a4.12,4.12,0,0,1,1.85,3.21c0,1.18-.84,1.66-1.87,1.07a4.12,4.12,0,0,1-1.85-3.21C288.13,130.4,289,129.93,290,130.52Z" style="fill:#95E392"></path><polygon points="99.78 97.64 99.79 98.82 30.75 138.68 30.75 137.5 99.78 97.64" style="fill:#95E392"></polygon><polygon points="30.75 143.89 30.75 145.06 52.65 132.42 52.65 131.24 30.75 143.89" style="fill:#95E392"></polygon><polygon points="72.41 87.85 72.41 89.03 89.71 79.07 89.71 77.89 72.41 87.85" style="fill:#95E392"></polygon><polygon points="30.75 111.83 30.75 113.01 61.64 95.23 61.64 94.05 30.75 111.83" style="fill:#95E392"></polygon><polygon points="30.75 118.66 30.75 119.83 84.63 88.75 84.63 87.57 30.75 118.66" style="fill:#95E392"></polygon><polygon points="168.01 32.82 155.55 39.99 155.55 41.16 168.01 33.99 168.01 32.82" style="fill:#95E392"></polygon><polygon points="99.38 72.33 99.38 73.5 129.6 56.1 129.6 54.93 99.38 72.33" style="fill:#95E392"></polygon><polygon points="136.68 50.86 136.68 52.03 146.55 46.35 146.55 45.17 136.68 50.86" style="fill:#95E392"></polygon><polygon points="464.01 114.82 464 115.99 442.1 103.34 442.1 102.17 464.01 114.82" style="fill:#95E392"></polygon><polygon points="422.35 58.78 422.35 59.95 405.05 49.99 405.05 48.82 422.35 58.78" style="fill:#95E392"></polygon><polygon points="464.01 82.76 464 83.94 433.12 66.15 433.12 64.98 464.01 82.76" style="fill:#95E392"></polygon><polygon points="464.01 89.58 464 90.76 410.13 59.67 410.13 58.5 464.01 89.58" style="fill:#95E392"></polygon><polygon points="464.01 108.43 423.97 85.32 423.97 86.49 464 109.6 464.01 108.43" style="fill:#95E392"></polygon><polygon points="418.56 311.55 423.24 309.24 438.42 318.01 438.32 357 395.36 332.2 395.45 299.94 395.46 298.21 418.56 311.55" style="fill:#95E392"></polygon><polygon points="395.36 341.95 438.32 366.75 438.32 362.94 395.36 338.14 395.36 341.95" style="fill:#95E392"></polygon><polygon points="395.36 346.09 395.36 349.91 418.13 363.05 418.13 359.24 395.36 346.09" style="fill:#95E392"></polygon><polygon points="395.36 341.95 438.32 366.75 438.32 362.94 395.36 338.14 395.36 341.95" style="fill:#95E392;opacity:0.2"></polygon><polygon points="395.36 346.09 395.36 349.91 418.13 363.05 418.13 359.24 395.36 346.09" style="fill:#95E392;opacity:0.2"></polygon><g style="opacity:0.6000000000000001"><polygon points="418.56 311.55 423.24 309.24 438.42 318.01 438.32 357 395.36 332.2 395.45 299.94 395.46 298.21 418.56 311.55" style="fill:#fff"></polygon><polygon points="395.36 341.95 438.32 366.75 438.32 362.94 395.36 338.14 395.36 341.95" style="fill:#fff"></polygon><polygon points="395.36 346.09 395.36 349.91 418.13 363.05 418.13 359.24 395.36 346.09" style="fill:#fff"></polygon><polygon points="395.36 341.95 438.32 366.75 438.32 362.94 395.36 338.14 395.36 341.95" style="fill:#fff;opacity:0.2"></polygon><polygon points="395.36 346.09 395.36 349.91 418.13 363.05 418.13 359.24 395.36 346.09" style="fill:#fff;opacity:0.2"></polygon></g><g style="opacity:0.7000000000000001"><path d="M429.51,334.75l.29.78-.29.46c-2.54,4-7.29,4.58-12.69,1.46a25.16,25.16,0,0,1-5.49-4.39L406.22,336l-1.62-2.8,4.59-2.62a34.47,34.47,0,0,1-5-9.19l-.28-.79.28-.45c2.54-4,7.29-4.58,12.7-1.46a24.59,24.59,0,0,1,5.48,4.39l5.12-2.92,1.62,2.81-4.59,2.62A34.29,34.29,0,0,1,429.51,334.75Zm-12.69.05c4.34,2.5,8.16,2.2,10.36-.78a28.44,28.44,0,0,0-4.37-7.5l-1.75,1a9.13,9.13,0,0,1,.72,3.38c0,3.13-2.23,4.4-4.95,2.83a9.27,9.27,0,0,1-2.58-2.33l-1.11.63a20.16,20.16,0,0,0,3.68,2.77m-5.95-5.21,1.76-1a9.16,9.16,0,0,1-.73-3.39c0-3.13,2.23-4.39,5-2.82a9.22,9.22,0,0,1,2.57,2.33l1.11-.63a19.82,19.82,0,0,0-3.68-2.77c-4.33-2.51-8.16-2.21-10.35.78a28.85,28.85,0,0,0,4.36,7.5m3.48-2,3.36-1.92a4.87,4.87,0,0,0-.86-.67c-1.45-.84-2.64-.16-2.65,1.51a4.13,4.13,0,0,0,.15,1.08m5,.89L416,330.42a4.38,4.38,0,0,0,.86.66c1.46.84,2.65.17,2.65-1.5a4.13,4.13,0,0,0-.15-1.08" style="fill:#fff"></path></g><polygon points="464.57 333.86 452.24 326.74 452.23 331.65 464.57 338.77 464.57 333.86" style="fill:#95E392"></polygon><polygon points="452.18 349.82 457.87 353.11 457.88 350.41 452.19 347.12 452.18 349.82" style="fill:#95E392"></polygon><polygon points="452.19 345.27 468.05 354.43 468.06 351.74 452.2 342.58 452.19 345.27" style="fill:#95E392"></polygon><polygon points="452.2 340.73 474.26 353.46 474.27 350.77 452.21 338.03 452.2 340.73" style="fill:#95E392"></polygon><polygon points="452.23 333.49 452.22 336.19 474.27 348.93 474.28 346.22 452.23 333.49" style="fill:#95E392"></polygon><polygon points="464.57 360.58 452.24 353.46 452.23 356.17 464.57 363.29 464.57 360.58" style="fill:#95E392"></polygon><polygon points="452.23 358.01 452.22 360.71 474.27 373.44 474.28 370.74 452.23 358.01" style="fill:#95E392"></polygon><polygon points="452.21 362.55 452.2 365.25 459.5 369.46 459.5 366.76 452.21 362.55" style="fill:#95E392"></polygon><g style="opacity:0.5"><polygon points="464.57 333.86 452.24 326.74 452.23 331.65 464.57 338.77 464.57 333.86" style="fill:#fff"></polygon><polygon points="452.18 349.82 457.87 353.11 457.88 350.41 452.19 347.12 452.18 349.82" style="fill:#fff"></polygon><polygon points="452.19 345.27 468.05 354.43 468.06 351.74 452.2 342.58 452.19 345.27" style="fill:#fff"></polygon><polygon points="452.2 340.73 474.26 353.46 474.27 350.77 452.21 338.03 452.2 340.73" style="fill:#fff"></polygon><polygon points="452.23 333.49 452.22 336.19 474.27 348.93 474.28 346.22 452.23 333.49" style="fill:#fff"></polygon><polygon points="464.57 360.58 452.24 353.46 452.23 356.17 464.57 363.29 464.57 360.58" style="fill:#fff"></polygon><polygon points="452.23 358.01 452.22 360.71 474.27 373.44 474.28 370.74 452.23 358.01" style="fill:#fff"></polygon><polygon points="452.21 362.55 452.2 365.25 459.5 369.46 459.5 366.76 452.21 362.55" style="fill:#fff"></polygon></g><path d="M448.11,325.73a3.6,3.6,0,0,1,1.63,2.82c0,1-.74,1.45-1.64.93a3.56,3.56,0,0,1-1.62-2.81C446.48,325.63,447.21,325.21,448.11,325.73Z" style="fill:#95E392"></path><path d="M421,302.79a3.6,3.6,0,0,1,1.63,2.82c0,1-.74,1.45-1.64.93a3.56,3.56,0,0,1-1.62-2.82C419.34,302.69,420.07,302.27,421,302.79Z" style="fill:#95E392"></path><polygon points="448.22 327.79 447.99 327.39 462.3 319.14 429.33 300.11 421.08 304.87 420.85 304.46 429.33 299.57 463.23 319.14 448.22 327.79" style="fill:#95E392"></polygon><polygon points="251.61 184.44 251.6 186.84 237.47 178.69 237.48 176.28 251.61 184.44" style="fill:#95E392"></polygon><polygon points="257.14 183.58 257.13 185.98 237.49 174.64 237.49 172.24 257.14 183.58" style="fill:#95E392"></polygon><polygon points="257.15 179.53 257.14 181.94 237.5 170.6 237.5 168.19 257.15 179.53" style="fill:#95E392"></polygon></g><g id="freepik--Character--inject-119"><path d="M292.28,381.45h0l2.86,1.82.05,0h0a3.24,3.24,0,0,0,3.22-.34,10.06,10.06,0,0,0,4.56-7.89,3.25,3.25,0,0,0-1.29-2.9h0l0,0,0,0-.84-.53,27.38-11.13a2,2,0,0,0,1,1.6l-2.47,21.53v2.92a10.13,10.13,0,0,0-3.77,7.35,3.13,3.13,0,0,0,1.42,3h0l2.86,1.82.06,0h0a3.23,3.23,0,0,0,3.22-.33,10,10,0,0,0,4.56-7.9,3.21,3.21,0,0,0-1.28-2.89h0l0,0,0,0-2.9-1.84h0a2.4,2.4,0,0,0-1.52-.33l3.16-22.44h0a6.53,6.53,0,0,0,2-.31h0l25.94,14-1.49.95a.05.05,0,0,0,0,0l0,0h0a3.21,3.21,0,0,0-1.28,2.89,10,10,0,0,0,4.56,7.9,3.26,3.26,0,0,0,3.22.33h0l.06,0,2.86-1.82h0a3.12,3.12,0,0,0,1.43-3,10.16,10.16,0,0,0-3.71-7.3v-4.52l-24.15-14.34,12.73-3.21a9.19,9.19,0,0,0-1.35,4.52,3.11,3.11,0,0,0,1.42,3h0l2.86,1.83.06,0h0a3.26,3.26,0,0,0,3.22-.33,10,10,0,0,0,4.56-7.9,3.21,3.21,0,0,0-1.28-2.89h0l0,0,0,0L361,350.89h0a2.67,2.67,0,0,0-2.16-.21V350l-1.55-.53-20.68,1.09v-3.65a6.49,6.49,0,0,0,.65-.31,3.48,3.48,0,0,0,2-2.84V319.8H325.46v23.92a3.4,3.4,0,0,0,2,2.84,7.13,7.13,0,0,0,.68.33V350l-15-3.23-.72.28v2.75l0,0h0l-2.9,1.84,0,0,0,0h0a3.21,3.21,0,0,0-1.28,2.89,9.89,9.89,0,0,0,2.25,5.82L296,366.88v3.41c-.2.09-.39.18-.6.3a10.08,10.08,0,0,0-4.56,7.89A3.14,3.14,0,0,0,292.28,381.45ZM300.89,366l10.46-4.67h0l-14.14,6.31Zm18.51-11.77,2.11,1.14-1.46.66A10.22,10.22,0,0,0,319.4,354.25Zm8.76-.38-7.88,3.51h0Z" style="fill:#e0e0e0"></path><path d="M361.72,356.7l2.29-3.92-3-1.89h0a3.16,3.16,0,0,0-3.3.27,10,10,0,0,0-4.56,7.89,3.11,3.11,0,0,0,1.42,3h0l2.92,1.86,2.42-4.13A11.13,11.13,0,0,0,361.72,356.7Z" style="fill:#37474f"></path><path d="M360.7,353.06c2.53-1.46,4.58-.29,4.59,2.61a10,10,0,0,1-4.56,7.9c-2.52,1.45-4.58.29-4.59-2.62A10.08,10.08,0,0,1,360.7,353.06Z" style="fill:#455a64"></path><path d="M311.77,355.58l-2.29-3.92,3-1.89h0a3.16,3.16,0,0,1,3.3.27,10,10,0,0,1,4.56,7.9,3.13,3.13,0,0,1-1.42,3h0L316,362.78l-2.41-4.13A10.78,10.78,0,0,1,311.77,355.58Z" style="fill:#37474f"></path><path d="M312.79,351.94c-2.52-1.46-4.58-.29-4.59,2.61a10.06,10.06,0,0,0,4.56,7.9c2.52,1.45,4.58.29,4.59-2.62A10.06,10.06,0,0,0,312.79,351.94Z" style="fill:#455a64"></path><path d="M328.16,345.86h8.48v14.62h0a2.14,2.14,0,0,1-1.25,1.74,6.61,6.61,0,0,1-6,0,2.08,2.08,0,0,1-1.23-1.74h0Z" style="fill:#ebebeb"></path><polygon points="358.87 349.96 358.87 353.44 336.64 359.05 336.64 351.67 358.87 349.96" style="fill:#e0e0e0"></polygon><polygon points="358.87 349.96 357.32 349.43 336.64 350.52 336.64 351.67 358.87 349.96" style="fill:#f5f5f5"></polygon><path d="M361.1,381.55l-2.29-3.92,3-1.89h0a3.16,3.16,0,0,1,3.3.27,10,10,0,0,1,4.56,7.89,3.12,3.12,0,0,1-1.43,3h0l-2.92,1.86-2.42-4.13A11.13,11.13,0,0,1,361.1,381.55Z" style="fill:#37474f"></path><path d="M362.12,377.91c-2.53-1.46-4.58-.29-4.59,2.61a10,10,0,0,0,4.56,7.9c2.52,1.45,4.58.29,4.58-2.62A10,10,0,0,0,362.12,377.91Z" style="fill:#455a64"></path><path d="M331.5,391.51l2.29-3.92-3-1.89h0a3.16,3.16,0,0,0-3.3.27,10,10,0,0,0-4.56,7.9,3.13,3.13,0,0,0,1.42,3h0l2.92,1.86,2.42-4.13A11,11,0,0,0,331.5,391.51Z" style="fill:#37474f"></path><path d="M330.48,387.87c2.53-1.46,4.58-.29,4.59,2.61a10,10,0,0,1-4.56,7.9c-2.52,1.45-4.58.29-4.59-2.62A10.08,10.08,0,0,1,330.48,387.87Z" style="fill:#455a64"></path><path d="M299.4,376.12l2.29-3.93-3-1.89h0a3.19,3.19,0,0,0-3.31.28,10.08,10.08,0,0,0-4.56,7.89,3.14,3.14,0,0,0,1.43,3h0l2.92,1.86,2.41-4.14A10.69,10.69,0,0,0,299.4,376.12Z" style="fill:#37474f"></path><path d="M298.39,372.48c2.52-1.46,4.58-.29,4.59,2.61a10.06,10.06,0,0,1-4.56,7.89c-2.53,1.46-4.58.29-4.59-2.61A10,10,0,0,1,298.39,372.48Z" style="fill:#455a64"></path><polygon points="364.22 373.06 364.22 378.7 334.44 362.62 334.44 354.83 364.22 373.06" style="fill:#e0e0e0"></polygon><polygon points="365.94 372.09 336.15 354.4 334.44 354.83 364.22 373.06 365.94 372.09" style="fill:#f5f5f5"></polygon><polygon points="365.94 377.73 364.22 378.7 364.22 373.06 365.94 372.09 365.94 377.73" style="fill:#f0f0f0"></polygon><polygon points="332.45 354.83 328.82 383.61 328.82 388.75 332.45 362.94 332.45 354.83" style="fill:#e0e0e0"></polygon><rect x="326.72" y="383.61" width="2.1" height="5.14" style="fill:#f0f0f0"></rect><polygon points="326.72 383.61 330.02 354.83 332.45 354.83 328.82 383.61 326.72 383.61" style="fill:#f5f5f5"></polygon><polygon points="297.21 367.66 297.21 373.06 328.16 360.48 328.16 353.87 297.21 367.66" style="fill:#e0e0e0"></polygon><polygon points="296.01 372.26 297.21 373.06 297.21 367.66 296.01 366.88 296.01 372.26" style="fill:#f0f0f0"></polygon><polygon points="300.89 366.02 297.21 367.66 296.01 366.88 328.16 352.4 328.16 353.87 300.89 366.02" style="fill:#f5f5f5"></polygon><polygon points="312.49 347.01 312.49 350.55 321.51 355.39 328.16 352.4 328.16 350.94 312.49 347.01" style="fill:#e0e0e0"></polygon><polygon points="312.49 347.01 313.21 346.73 328.16 349.96 328.16 350.94 312.49 347.01" style="fill:#f5f5f5"></polygon><path d="M325.46,319.8h13.88v23.92h0a3.48,3.48,0,0,1-2,2.84,10.8,10.8,0,0,1-9.81,0,3.4,3.4,0,0,1-2-2.84h0Z" style="fill:#e0e0e0"></path><path d="M270.78,281.35a7.83,7.83,0,0,1,2.64-2.55l5.2-2.67c0-18.5-2.73-16.68-7.84-23.94s2.72-11.77,8.61-8.55h0s32.9,9.68,41.61,1.13c10.82-10.62,6.29-37.41,5-47.89s0-17.74,2.9-20.81,7.09-7.58,20.72-1.93c0,0,36.72,15.9,54.69,24.78a24.13,24.13,0,0,1,11.33,5.76,7.46,7.46,0,0,1,2.07,2.73,3.23,3.23,0,0,1-.41,3.27,3.12,3.12,0,0,1-2.15,1l-22.69,83.82a20.06,20.06,0,0,1-10.3,12.65l-39.62,20.07a13.22,13.22,0,0,1-12.19-.12l-56.56-30C268.14,294.81,267.61,286.17,270.78,281.35Z" style="fill:#37474f"></path><path d="M270.78,281.35a9,9,0,0,0,3,2.83l56.56,30.05a13.25,13.25,0,0,0,12.19.12l39.62-20.07a20.05,20.05,0,0,0,10.3-12.66L411.58,211l1,.3a7.86,7.86,0,0,0,2.5.38l.11,0-22.69,83.82a20.06,20.06,0,0,1-10.3,12.65l-39.62,20.07a13.22,13.22,0,0,1-12.19-.12l-56.56-30C268.14,294.81,267.61,286.17,270.78,281.35Z" style="fill:#263238"></path><path d="M273.42,278.8l41-21,54,27.77c-1.76.42-3.54.78-5.31,1.13-4.64.94-9.37,2-13.4,4.44s-7.29,6.73-7.32,11.46l1.44,11.14h0l-1.25.64a13.25,13.25,0,0,1-12.19-.12l-56.56-30.05a9,9,0,0,1-3-2.83A7.83,7.83,0,0,1,273.42,278.8Z" style="fill:#37474f"></path><path d="M279.39,243.64s32.9,9.68,41.61,1.13c10.82-10.62,6.29-37.41,5-47.89s0-17.74,2.9-20.81,7.09-7.58,20.72-1.93c-13.79,7.09-15.56,40.81-11.21,54.35-10.8,11.12-10.06,28.35-10.27,36.35,0,0-28.11,6.86-42.78,14.93Z" style="fill:#37474f"></path><path d="M285.36,279.77l-6.74-3.64c0-18.5-2.73-16.68-7.84-23.94s2.72-11.77,8.61-8.55S287.65,256.57,285.36,279.77Z" style="fill:#455a64"></path><path d="M349.62,174.14s36.85,16,54.79,24.83l-1.3,6.55-58.78-26.69A15.61,15.61,0,0,1,349.62,174.14Z" style="fill:#455a64"></path><path d="M338.41,228.49c-3.71-11.55-3-37.81,5.92-49.66l58.78,26.69-13.44,67.33-21.29,12.69-40.24-20.7C328.35,256.84,327.61,239.61,338.41,228.49Z" style="fill:#455a64"></path><path d="M374.79,242c-1-.57-1.81-.11-1.81,1a4,4,0,0,0,1.8,3.12c1,.58,1.81.12,1.81-1A4,4,0,0,0,374.79,242Z" style="fill:#455a64"></path><path d="M365.69,236.65c-1-.58-1.8-.12-1.81,1a4,4,0,0,0,1.8,3.12c1,.57,1.81.11,1.81-1A3.93,3.93,0,0,0,365.69,236.65Z" style="fill:#455a64"></path><path d="M356.6,231.3c-1-.57-1.81-.11-1.81,1a3.93,3.93,0,0,0,1.8,3.12c1,.58,1.81.12,1.81-1A4,4,0,0,0,356.6,231.3Z" style="fill:#455a64"></path><path d="M347.5,226c-1-.58-1.81-.12-1.81,1a4,4,0,0,0,1.8,3.12c1,.57,1.81.11,1.81-1A3.93,3.93,0,0,0,347.5,226Z" style="fill:#455a64"></path><path d="M374.79,242c-1-.57-1.81-.11-1.81,1a4,4,0,0,0,1.8,3.12c1,.58,1.81.12,1.81-1A4,4,0,0,0,374.79,242Z" style="fill:#37474f"></path><path d="M365.69,236.65c-1-.58-1.8-.12-1.81,1a4,4,0,0,0,1.8,3.12c1,.57,1.81.11,1.81-1A3.93,3.93,0,0,0,365.69,236.65Z" style="fill:#37474f"></path><path d="M356.6,231.3c-1-.57-1.81-.11-1.81,1a3.93,3.93,0,0,0,1.8,3.12c1,.58,1.81.12,1.81-1A4,4,0,0,0,356.6,231.3Z" style="fill:#37474f"></path><path d="M347.5,226c-1-.58-1.81-.12-1.81,1a4,4,0,0,0,1.8,3.12c1,.57,1.81.11,1.81-1A3.93,3.93,0,0,0,347.5,226Z" style="fill:#37474f"></path><path d="M349.67,291.11c4-2.48,8.76-3.5,13.4-4.44,1.77-.35,3.55-.71,5.31-1.13a32.65,32.65,0,0,0,8.22-3c6.5-3.59,10.86-10.3,13-17.43s2.14-14.69,1.69-22.1-1.36-14.82-1.13-22.24c.13-4.32.78-8.94,3.71-12.13s7.87-4.29,12.28-3.7a25,25,0,0,1,4.27,1l1.95,2.28-.75,2.77-19.12,70.63a20.07,20.07,0,0,1-8.78,11.79c-.5.3-1,.6-1.52.87l-38.37,19.43-1.44-11.14C342.38,297.84,345.64,293.59,349.67,291.11Z" style="fill:#263238"></path><path d="M349.62,283.52c14-4,27.82-4.52,32.9-14.6s5.44-24,2.9-48.18a36.82,36.82,0,0,1,.23-9.36c1.49-9,6.94-12.92,13.2-13a24.34,24.34,0,0,1,16.79,6.31,7.46,7.46,0,0,1,2.07,2.73,3.23,3.23,0,0,1-.41,3.27,3.12,3.12,0,0,1-2.15,1l-.11,0a7.86,7.86,0,0,1-2.5-.38l-1-.3c-1.72-.54-3.4-1.18-5.15-1.61a11.32,11.32,0,0,0-6.32,0,6.72,6.72,0,0,0-4.05,4.53C390.14,233.24,397.64,254,391,270c-5.45,14.51-24.26,20.54-37.53,24.84h0a8.12,8.12,0,0,0,3.31-2.41,5.56,5.56,0,0,0-.52-6.72A7.3,7.3,0,0,0,349.62,283.52Z" style="fill:#37474f"></path><path d="M339.88,293.45a20.89,20.89,0,0,1,3.59-6.29,10.78,10.78,0,0,1,6.15-3.64,7.3,7.3,0,0,1,6.63,2.16,5.56,5.56,0,0,1,.52,6.72,8.12,8.12,0,0,1-3.31,2.41,32.79,32.79,0,0,0-3.09,1.52,13.08,13.08,0,0,0-5.3,7.49,39.14,39.14,0,0,0-1.23,9.29l0,.6-6.57-3.65A40.45,40.45,0,0,1,339.88,293.45Z" style="fill:#455a64"></path><path d="M315.88,320.27c6.49-2.79,15.31-7.46,18.64-13.69s3-17.62,1.74-24.57l-52.15-14.45c-1.58,15.12-15.48,25-15.48,25Z" style="fill:#263238"></path><path d="M214.85,370.6c.22,5.1,0,11.1,0,11.1l3,.16a7.19,7.19,0,0,1,6.36,4.72l.06.19a2.81,2.81,0,0,0,3.46,1.72h0a2.79,2.79,0,0,0,1.69-1.46l1.52-12.8Z" style="fill:#ffa8a7"></path><path d="M210.51,415c-7.76,3.31-19.65,4-24.58-4v2.14c4.93,7.92,16.82,7.28,24.58,4s6.06-8.73,13-11.64a18.7,18.7,0,0,0,6.79-4.28c0-.63.14-1.42.24-2.34a23.54,23.54,0,0,1-7,4.48C216.57,406.27,218.27,411.69,210.51,415Z" style="fill:#37474f"></path><path d="M230.55,391.84a11.39,11.39,0,0,1,0-4.58,2.38,2.38,0,0,0-.35-2l-.58-.57-.28,2.36a2.8,2.8,0,0,1-5.15-.26l-.06-.19a7.19,7.19,0,0,0-6.36-4.72l-3-.17a2.18,2.18,0,0,0-2.12,1.34c-3.1,7.47-10.88,15.76-16.89,19.56-4.4-.1-9.86,3.56-9.86,8V411c4.93,7.92,16.82,7.27,24.58,4s6.06-8.73,13-11.64a23.54,23.54,0,0,0,7-4.48A24.88,24.88,0,0,0,230.55,391.84Z" style="fill:#95E392"></path><path d="M215.53,398a1,1,0,0,0,1.53-1.24,11.25,11.25,0,0,0-10.13-4.45c-.41.52-.84,1-1.27,1.52C209.32,393.6,212.59,394.39,215.53,398Z" style="fill:#fff"></path><path d="M218.59,394.54a1,1,0,0,0,1.54-1.23,11.86,11.86,0,0,0-10.58-4.57c-.37.56-.76,1.11-1.16,1.66C212.18,390.13,215.56,390.85,218.59,394.54Z" style="fill:#fff"></path><path d="M212.35,401.32a1,1,0,0,0,1.53-1.24,11.24,11.24,0,0,0-9.86-4.47c-.5.53-1,1-1.52,1.54A10.82,10.82,0,0,1,212.35,401.32Z" style="fill:#fff"></path><path d="M195.79,402.59c-4.4-.1-9.86,3.56-9.86,8V411c4.86,7.8,16.46,7.29,24.22,4.1C209.55,404.48,199.32,402.55,195.79,402.59Z" style="fill:#fff"></path><path d="M209.08,404.52a1,1,0,0,0,1.53-1.24,11.23,11.23,0,0,0-9.89-4.47c-.62.55-1.24,1.07-1.85,1.56C202.66,400.1,206.05,400.82,209.08,404.52Z" style="fill:#fff"></path><path d="M266.86,380.43c.22,5.1,0,11.1,0,11.1l3,.16a7.19,7.19,0,0,1,6.36,4.72l.06.19a2.79,2.79,0,0,0,3.46,1.71h0a2.76,2.76,0,0,0,1.69-1.46l1.52-12.79Z" style="fill:#ffa8a7"></path><path d="M262.52,424.83c-7.76,3.31-19.65,4-24.58-4V423c4.93,7.92,16.82,7.28,24.58,4s6.06-8.73,13-11.64a18.85,18.85,0,0,0,6.79-4.28c0-.63.14-1.43.24-2.34a23.54,23.54,0,0,1-7,4.48C268.58,416.1,270.28,421.51,262.52,424.83Z" style="fill:#37474f"></path><path d="M282.56,401.67a11.39,11.39,0,0,1,0-4.58,2.41,2.41,0,0,0-.35-2l-.58-.57-.28,2.36a2.76,2.76,0,0,1-1.69,1.46,2.79,2.79,0,0,1-3.46-1.71l-.06-.19a7.19,7.19,0,0,0-6.36-4.72l-3-.17a2.15,2.15,0,0,0-2.12,1.34c-3.1,7.46-10.88,15.76-16.89,19.56-4.4-.1-9.86,3.56-9.86,8v.45c4.93,7.92,16.82,7.27,24.58,4s6.06-8.73,13-11.64a23.54,23.54,0,0,0,7-4.48A24.88,24.88,0,0,0,282.56,401.67Z" style="fill:#95E392"></path><path d="M267.54,407.8a1,1,0,0,0,1.53-1.24,11.25,11.25,0,0,0-10.13-4.45c-.42.51-.84,1-1.27,1.52C261.33,403.43,264.6,404.21,267.54,407.8Z" style="fill:#fff"></path><path d="M270.6,404.37a1,1,0,0,0,1.54-1.23,11.82,11.82,0,0,0-10.58-4.57c-.37.56-.76,1.11-1.16,1.66C264.19,400,267.57,400.68,270.6,404.37Z" style="fill:#fff"></path><path d="M264.36,411.15a1,1,0,0,0,1.53-1.24,11.23,11.23,0,0,0-9.86-4.47c-.5.53-1,1-1.52,1.54A10.82,10.82,0,0,1,264.36,411.15Z" style="fill:#fff"></path><path d="M247.8,412.42c-4.4-.1-9.86,3.56-9.86,8v.45c4.86,7.8,16.46,7.28,24.22,4.1C261.56,414.31,251.33,412.38,247.8,412.42Z" style="fill:#fff"></path><path d="M261.09,414.34a1,1,0,0,0,1.37.13,1,1,0,0,0,.16-1.36,11.23,11.23,0,0,0-9.89-4.47c-.62.55-1.24,1.07-1.85,1.56C254.67,409.93,258.06,410.65,261.09,414.34Z" style="fill:#fff"></path><path d="M244.46,350.94c-2.49,10.52-4.18,17.14-8.75,31.29,0,0-17.71,3.79-24.69-3.12l8-38.51Z" style="fill:#263238"></path><path d="M287.61,354c-.67,10.79-.28,20.52-2.39,35.24,0,0-15.09,5-23.14-.62l-1.32-25.73Z" style="fill:#263238"></path><path d="M347.81,311.79l-156.34-90.1-84.09,48.57V279h0v93.6l3.31,1.91,3.31-1.91V305.9L134,294.38l126.47,73.11V461.1l3.31,1.91L267,461.1V394.37l74.16-42.82v62.89l3.31,1.92,3.31-1.92v-93.6l-3.31,1.91h0l3.31-1.91v-9ZM114,282.86l13.6,7.86L114,298.59ZM341.2,344.17,267,387.05V367.5l74.16-42.84Z" style="fill:#263238"></path><polygon points="110.7 280.94 110.7 374.54 114.01 372.63 114.01 279.02 110.7 280.94" style="fill:#263238"></polygon><polygon points="110.7 280.94 110.7 374.54 107.39 372.63 107.39 279.02 110.7 280.94" style="fill:#37474f"></polygon><polygon points="114.01 305.9 191.48 261.17 191.48 257.62 114.01 302.34 114.01 305.9" style="fill:#263238"></polygon><polygon points="114.01 298.59 188.17 255.71 191.48 257.62 114.01 302.34 114.01 298.59" style="fill:#455a64"></polygon><polygon points="344.51 322.75 344.51 416.36 347.82 414.44 347.82 320.84 344.51 322.75" style="fill:#263238"></polygon><polygon points="344.51 322.75 344.51 416.36 341.2 414.44 341.2 320.84 344.51 322.75" style="fill:#37474f"></polygon><polygon points="263.74 369.41 263.74 463.01 267.05 461.1 267.05 367.49 263.74 369.41" style="fill:#263238"></polygon><polygon points="263.74 369.41 263.74 463.01 260.43 461.1 260.43 367.49 263.74 369.41" style="fill:#37474f"></polygon><polygon points="267.05 394.37 344.51 349.64 344.51 346.08 267.05 390.81 267.05 394.37" style="fill:#263238"></polygon><polygon points="267.05 387.05 341.2 344.17 344.51 346.08 267.05 390.81 267.05 387.05" style="fill:#455a64"></polygon><polygon points="263.74 360.37 107.38 270.26 191.47 221.69 347.82 311.8 263.74 360.37" style="fill:#455a64"></polygon><polygon points="263.74 369.41 107.38 279.03 107.38 270.26 263.74 360.37 263.74 369.41" style="fill:#37474f"></polygon><polygon points="263.74 360.36 347.82 311.79 347.82 320.84 263.74 369.41 263.74 360.36" style="fill:#263238"></polygon><polygon points="199.31 243.13 186.78 270.55 154.05 265.47 166.58 238.06 199.31 243.13" style="fill:#e6e6e6"></polygon><polygon points="211.6 248.44 183.27 271.55 155.65 260.16 183.97 237.06 211.6 248.44" style="fill:#f0f0f0"></polygon><polygon points="217.4 240.72 234.38 257.71 192 271.87 175 254.88 217.4 240.72" style="fill:#fff"></polygon><path d="M192.16,287l34.31-19.94a7.73,7.73,0,0,1,7,0l56.6,32.68a2.56,2.56,0,0,1,1.46,1.94h0v2.18h0a1.68,1.68,0,0,1,0,.45.09.09,0,0,0,0,.05,2.69,2.69,0,0,1-.24.48l0,0a2.35,2.35,0,0,1-.43.47l0,0a3.91,3.91,0,0,1-.63.45l-34.31,19.94a5.91,5.91,0,0,1-1,.43c-.12,0-.25.08-.37.12s-.33.09-.5.12l-.61.11-.15,0a7.87,7.87,0,0,1-.84,0h-.13a7.56,7.56,0,0,1-.83,0l-.13,0a7.4,7.4,0,0,1-.8-.13l-.14,0a7,7,0,0,1-.69-.21l-.12,0a4.43,4.43,0,0,1-.76-.36l-56.61-32.68a4.53,4.53,0,0,1-.64-.45l-.16-.18a3.08,3.08,0,0,1-.3-.33,2.12,2.12,0,0,1-.11-.21,1.59,1.59,0,0,1-.16-.32,1,1,0,0,1,0-.24,1.67,1.67,0,0,1,0-.31v-2A2.47,2.47,0,0,1,192.16,287Z" style="fill:#e0e0e0"></path><path d="M291.57,301.7a1.89,1.89,0,0,1-.06.62.06.06,0,0,0,0,0,2.16,2.16,0,0,1-.24.48l0,.06a2.66,2.66,0,0,1-.43.47l0,0a3.94,3.94,0,0,1-.63.46l-34.31,19.93a5.22,5.22,0,0,1-1,.44l-.37.11-.5.13-.61.1-.15,0c-.28,0-.56,0-.84.05h-.13c-.28,0-.56,0-.83-.05h-.13c-.27,0-.53-.08-.8-.14l-.14,0a7,7,0,0,1-.69-.21l-.12,0a4.43,4.43,0,0,1-.76-.36L192.17,291.1a4.53,4.53,0,0,1-.64-.45l-.16-.18a3,3,0,0,1-.3-.32,2.26,2.26,0,0,1-.11-.22,1.37,1.37,0,0,1-.16-.32,1,1,0,0,1,0-.23,1.92,1.92,0,0,1,0-.32v2a1.67,1.67,0,0,0,0,.31,1,1,0,0,0,0,.24,1.59,1.59,0,0,0,.16.32,2.12,2.12,0,0,0,.11.21,3.08,3.08,0,0,0,.3.33l.16.18a4.53,4.53,0,0,0,.64.45l56.61,32.68a4.43,4.43,0,0,0,.76.36l.12,0a7,7,0,0,0,.69.21l.14,0a7.4,7.4,0,0,0,.8.13l.13,0a7.56,7.56,0,0,0,.83,0h.13a7.87,7.87,0,0,0,.84,0l.15,0,.61-.11c.17,0,.33-.08.5-.12s.25-.07.37-.12a5.91,5.91,0,0,0,1-.43l34.31-19.94a3.91,3.91,0,0,0,.63-.45l0,0a2.35,2.35,0,0,0,.43-.47l0,0a2.69,2.69,0,0,0,.24-.48.09.09,0,0,1,0-.05,1.68,1.68,0,0,0,0-.45h0V301.7Z" style="opacity:0.30000000000000004"></path><path d="M195.51,289.06l55,31.75.22.1.12,0,.43.13.3.06.21,0c.14,0,.3,0,.53,0h.05a4,4,0,0,0,.56,0l.36-.06.45-.12a2.54,2.54,0,0,0,.38-.16l17.69-10.29L215,277.73Z" style="fill:#e0e0e0"></path><path d="M252.37,321.19h0Z" style="fill:#263238"></path><path d="M247.82,280.32l-10.34,6.09a1,1,0,0,0,0,1.81L253,297.15a1.7,1.7,0,0,0,1.73,0L265,291.06a1,1,0,0,0,0-1.81l-15.46-8.93A1.74,1.74,0,0,0,247.82,280.32Z" style="fill:#e0e0e0"></path><path d="M195.51,289.06l55,31.75.22.1.12,0,.43.13.3.06.21,0c.14,0,.3,0,.53,0h.05a4,4,0,0,0,.56,0l.36-.06.45-.12a2.54,2.54,0,0,0,.38-.16l17.69-10.29L215,277.73Z" style="opacity:0.2"></path><path d="M247.82,280.32l-10.34,6.09a1,1,0,0,0,0,1.81L253,297.15a1.7,1.7,0,0,0,1.73,0L265,291.06a1,1,0,0,0,0-1.81l-15.46-8.93A1.74,1.74,0,0,0,247.82,280.32Z" style="opacity:0.2"></path><path d="M240.83,260c-4.16,6,5.71,14.65,9.93,12.56S249.52,255.57,240.83,260Z" style="fill:#95E392"></path><path d="M240.83,260c-4.16,6,5.71,14.65,9.93,12.56S249.52,255.57,240.83,260Z" style="opacity:0.4"></path><path d="M276.36,209.77,265,243.8l-25.44,19.91a11,11,0,0,1-5.07.79l-10.2-.84a5.68,5.68,0,0,0-3.42.8L215,268a6.44,6.44,0,0,0-1.56,1.33l-2.86,3.39a2.15,2.15,0,0,0,.39,3.13l1.8,1.28a6.38,6.38,0,0,0,6.6.51l4.52-2.27,9.33,1v2.43L230.72,281a2.7,2.7,0,0,0,.07,4.14h0s6.24-1.85,11.89-10.9l29.84-14.75A21.17,21.17,0,0,0,283.28,247l17-52.2-6.67.84A20.88,20.88,0,0,0,276.36,209.77Z" style="fill:#ffa8a7"></path><path d="M293.29,193.57a23.11,23.11,0,0,0-18.94,15.53l-11.16,33.43-14.34,11.22a11.12,11.12,0,0,1,8.49,15.59l16.12-8a23.48,23.48,0,0,0,11.84-13.7l18-55.36Z" style="fill:#95E392"></path><path d="M257,259.45a11.41,11.41,0,0,0-8.14-5.7l-8,6.28a10,10,0,0,1,9.93,12.56l6.58-3.25A11.4,11.4,0,0,0,257,259.45Z" style="fill:#95E392"></path><path d="M293.29,193.57a23.11,23.11,0,0,0-18.94,15.53l-11.16,33.43-14.34,11.22a11.12,11.12,0,0,1,8.49,15.59l16.12-8a23.48,23.48,0,0,0,11.84-13.7l18-55.36Z" style="fill:#fff;opacity:0.4"></path><path d="M257,259.45a11.41,11.41,0,0,0-8.14-5.7l-8,6.28a10,10,0,0,1,9.93,12.56l6.58-3.25A11.4,11.4,0,0,0,257,259.45Z" style="fill:#fff;opacity:0.7000000000000001"></path><path d="M263.19,242.53c7.2.15,10.64,3.86,11.5,5.71C275,237.51,264,240,264,240Z" style="opacity:0.2"></path><path d="M182.92,247.05h0l1.36-.68h0a1.68,1.68,0,0,1,1.52.1l57,33.13a6.89,6.89,0,0,1,3.34,4.88L252,321.75a1.7,1.7,0,0,1-1,1.81h0l-1.32.65h0a1.69,1.69,0,0,1-1.46-.12l-57-33.14a6.9,6.9,0,0,1-3.34-4.88l-5.85-37.26A1.68,1.68,0,0,1,182.92,247.05Z" style="fill:#e0e0e0"></path><path d="M214,281.15a12.59,12.59,0,0,1,5.66,8.15c.37,2.9-1.55,4-4.31,2.39a12.62,12.62,0,0,1-5.66-8.15C209.32,280.64,211.25,279.56,214,281.15Z" style="fill:#fff"></path><path d="M250.82,322.33,245,285.07a6.87,6.87,0,0,0-3.34-4.88l-57-33.14a1.69,1.69,0,0,0-1.71,0h0l1.36-.68h0a1.68,1.68,0,0,1,1.52.1l57,33.13a6.89,6.89,0,0,1,3.34,4.88L252,321.75a1.7,1.7,0,0,1-1,1.81h0l-1.32.65h0A1.7,1.7,0,0,0,250.82,322.33Z" style="opacity:0.30000000000000004"></path><path d="M279.12,270.78l0,8.87c14.14,10.4,48.64,8,59.86,1.88l-1.15-9.1Z" style="fill:#95E392"></path><path d="M279.12,270.78l0,8.87c14.14,10.4,48.64,8,59.86,1.88l-1.15-9.1Z" style="fill:#fff;opacity:0.2"></path><path d="M337.8,272.43l-58.68-1.65v3.68c3.55,3.06,8.26,4.55,12.88,5.53a82.85,82.85,0,0,0,39-1.26,3.29,3.29,0,0,1,4.15,2.76l.19,1.6a24,24,0,0,0,3.62-1.56Z" style="opacity:0.2"></path><path d="M301.08,193.09l-5,.52a12.25,12.25,0,0,0-9,5.43c-5.19,7.92-7.61,20.1-6.23,33.29,1.06,10-1.71,22-4.05,29.93a11.07,11.07,0,0,0,6.44,13.45c16.79,6.68,40.76,3.7,53.18-.36A7.49,7.49,0,0,0,341,265.22s-4.65-20.71-3.76-22.79c2.05-4.75,2.54-16.27,3-23.52a37.92,37.92,0,0,0-4-18.68l-19-7.14Z" style="fill:#95E392"></path><path d="M301.08,193.09l-5,.52a12.25,12.25,0,0,0-9,5.43c-5.19,7.92-7.61,20.1-6.23,33.29,1.06,10-1.71,22-4.05,29.93a11.07,11.07,0,0,0,6.44,13.45c16.79,6.68,40.76,3.7,53.18-.36A7.49,7.49,0,0,0,341,265.22s-4.65-20.71-3.76-22.79c2.05-4.75,2.54-16.27,3-23.52a37.92,37.92,0,0,0-4-18.68l-19-7.14Z" style="fill:#fff;opacity:0.2"></path><path d="M337.25,242.43c2.05-4.75,2.54-16.27,3-23.52a31.33,31.33,0,0,0-.1-5.33l-9.94,3.87A58.33,58.33,0,0,0,332,234.28a158.55,158.55,0,0,1,4,22l.06.55a37.16,37.16,0,0,1,0,8l-.62,6.12a8.41,8.41,0,0,1-3,5.65c1.43-.37,2.78-.76,4-1.16A7.49,7.49,0,0,0,341,265.22S336.36,244.51,337.25,242.43Z" style="opacity:0.2"></path><path d="M288.61,250.85c11.67,3.48,27.15,1.73,27.15,1.73-.15,7,6.27,10.66,8,10.66v11.09c-25,3.8-36.78-1.12-41-3.55v-8.42C287.88,260.9,288.61,250.85,288.61,250.85Z" style="opacity:0.2"></path><path d="M290.2,195.24l.31-.16a2.74,2.74,0,0,0-2.84.26,8.67,8.67,0,0,0-3.94,6.82,2.81,2.81,0,0,0,1,2.46A11.92,11.92,0,0,1,290.2,195.24Z" style="fill:#95E392"></path><path d="M287.62,206.22a11.93,11.93,0,0,1,5.42-9.38,3.83,3.83,0,0,1,3.84-.4h0l-2.77-1.56h0a3.63,3.63,0,0,0-3.6.2l-.31.16a11.92,11.92,0,0,0-5.42,9.38h0a3.78,3.78,0,0,0,1.61,3.51h0l2.79,1.57h0A3.81,3.81,0,0,1,287.62,206.22Z" style="fill:#95E392"></path><path d="M296.88,196.44a3.83,3.83,0,0,0-3.84.4,11.93,11.93,0,0,0-5.42,9.38,3.32,3.32,0,0,0,5.46,3.11,11.94,11.94,0,0,0,5.42-9.39A3.75,3.75,0,0,0,296.88,196.44Zm-3.81,10.16c-1.69,1-3.07.2-3.07-1.75a6.7,6.7,0,0,1,3.05-5.28c1.69-1,3.07-.2,3.07,1.74A6.7,6.7,0,0,1,293.07,206.6Z" style="fill:#95E392"></path><path d="M293.05,199.57a6.7,6.7,0,0,0-3.05,5.28c0,2,1.38,2.73,3.07,1.75a6.7,6.7,0,0,0,3.05-5.29C296.12,199.37,294.74,198.59,293.05,199.57Z" style="fill:#95E392"></path><path d="M290.2,195.24l.31-.16a2.74,2.74,0,0,0-2.84.26,8.67,8.67,0,0,0-3.94,6.82,2.81,2.81,0,0,0,1,2.46A11.92,11.92,0,0,1,290.2,195.24Z" style="fill:#fff;opacity:0.30000000000000004"></path><path d="M287.62,206.22a11.93,11.93,0,0,1,5.42-9.38,3.83,3.83,0,0,1,3.84-.4h0l-2.77-1.56h0a3.63,3.63,0,0,0-3.6.2l-.31.16a11.92,11.92,0,0,0-5.42,9.38h0a3.78,3.78,0,0,0,1.61,3.51h0l2.79,1.57h0A3.81,3.81,0,0,1,287.62,206.22Z" style="opacity:0.2"></path><path d="M296.88,196.44a3.83,3.83,0,0,0-3.84.4,11.93,11.93,0,0,0-5.42,9.38,3.32,3.32,0,0,0,5.46,3.11,11.94,11.94,0,0,0,5.42-9.39A3.75,3.75,0,0,0,296.88,196.44Zm-3.81,10.16c-1.69,1-3.07.2-3.07-1.75a6.7,6.7,0,0,1,3.05-5.28c1.69-1,3.07-.2,3.07,1.74A6.7,6.7,0,0,1,293.07,206.6Z" style="opacity:0.30000000000000004"></path><path d="M293.05,199.57a6.7,6.7,0,0,0-3.05,5.28c0,2,1.38,2.73,3.07,1.75a6.7,6.7,0,0,0,3.05-5.29C296.12,199.37,294.74,198.59,293.05,199.57Z" style="opacity:0.5"></path><path d="M291.7,233.71a.68.68,0,0,1-.28-.07.59.59,0,0,1-.23-.8,33.31,33.31,0,0,0,4-17.74c-.08-1.3-.24-2.62-.39-3.89-.17-1.48-.35-3-.42-4.53a15.56,15.56,0,0,1,1.67-8.49.59.59,0,1,1,1,.58,14.34,14.34,0,0,0-1.52,7.86c.06,1.48.24,3,.41,4.44.16,1.29.31,2.63.39,4a34.37,34.37,0,0,1-4.13,18.37A.59.59,0,0,1,291.7,233.71Z" style="fill:#fff"></path><path d="M294.62,182.57c.11-2.23.65-4.61,2.32-6.1a6.26,6.26,0,0,1,6.83-.64,9.35,9.35,0,0,1,4.41,5.56,19,19,0,0,1,.6,7.21,13.68,13.68,0,0,1-2,6.93c-1.31,1.85-5.08,4.1-7.16,2.2-2.37-2.14-3.78-6.25-4.45-9.26A22.13,22.13,0,0,1,294.62,182.57Z" style="fill:#263238"></path><path d="M302.91,202.29c-8-11.08-12.11-37-9.49-46.19l-9.63,3.73C279.12,184.27,291,201.33,302.91,202.29Z" style="fill:#95E392"></path><path d="M286.49,171.32a12.73,12.73,0,0,1-3.55-16.81,7,7,0,0,1-3.36-3.17,3.71,3.71,0,0,1,4.82-4.94,5.2,5.2,0,0,1,2.07-6.07,4.9,4.9,0,0,1,6.11,1.12,3.32,3.32,0,0,1,2.27-3.26,6.76,6.76,0,0,1,4.23.26c1.37.47,2.65,1.15,4,1.58a31.12,31.12,0,0,0,7.22.92,14.6,14.6,0,0,1,7,1.86c2,1.32,3.84,4.41,2.74,7.07a4,4,0,0,1,2.89-1.54,3.88,3.88,0,0,1,3,1.26c-1.52.94-3,2-4.5,2.89,1.52-.68,3.8.39,4.63,1.85a9.35,9.35,0,0,1,.82,4.89A65.6,65.6,0,0,1,323.48,178c-1,3.12-2.54,6.43-5.49,7.87Z" style="fill:#263238"></path><path d="M317.38,180.48v13a6.14,6.14,0,0,1-2.07,4.61,17.34,17.34,0,0,1-12.4,4.22,4.41,4.41,0,0,1-2.58-.8,3.39,3.39,0,0,1-.82-3.53,6.74,6.74,0,0,1,.94-1.9,5.89,5.89,0,0,0,1-3.29V180.48Z" style="fill:#ffa8a7"></path><path d="M307.92,191a35.08,35.08,0,0,1-6.45,1.28V180.48h15.91v2.77a12.54,12.54,0,0,1-1.3,2.28A15.82,15.82,0,0,1,307.92,191Z" style="opacity:0.2"></path><path d="M285.63,155.94a66.81,66.81,0,0,0,1.67,25.88,20,20,0,0,0,2.06,5.32,8.63,8.63,0,0,0,4.19,3.73c2.2.82,4.64.42,6.95,0,4.22-.74,8.55-1.52,12.22-3.74s6.57-6.23,6.22-10.51a7.33,7.33,0,0,0,7,.39,7.43,7.43,0,0,0,3.84-5.94c.17-2.4-1.22-5.06-3.57-5.54a5.17,5.17,0,0,0-4.08,1.2,15.36,15.36,0,0,0-2.85,3.32,4.92,4.92,0,0,1-1.42,1.52,1.73,1.73,0,0,1-2,0,2.59,2.59,0,0,1-.56-2.13l.25-5.42a2.17,2.17,0,0,0-1.2-2A5.26,5.26,0,0,1,312,159.2a10.89,10.89,0,0,1-.68-3.26,1.33,1.33,0,0,0-1.83-1.13C302.19,157.74,293.13,157.87,285.63,155.94Z" style="fill:#ffa8a7"></path><polygon points="297.54 169.08 292.67 177.28 298.48 178.37 297.54 169.08" style="fill:#f28f8f"></polygon><path d="M304.08,181.2l-4.42,2.14a2.89,2.89,0,0,0,3.35.95A2.59,2.59,0,0,0,304.08,181.2Z" style="fill:#f28f8f"></path><path d="M304.08,181.2l-4.42,2.14a2.89,2.89,0,0,0,3.35.95A2.59,2.59,0,0,0,304.08,181.2Z" style="opacity:0.30000000000000004"></path><path d="M301.48,184.44a2.64,2.64,0,0,0,1.53-.15,2.33,2.33,0,0,0,1.18-2.32,2.66,2.66,0,0,0-2.71,2.47Z" style="fill:#f28f8f"></path><path d="M306,169.41a1.67,1.67,0,0,1-3.32.33,1.67,1.67,0,1,1,3.32-.33Z" style="fill:#263238"></path><path d="M292,170.27a1.67,1.67,0,1,1-1.83-1.49A1.67,1.67,0,0,1,292,170.27Z" style="fill:#263238"></path><path d="M289.68,163.83l-3.42,2.92a2.39,2.39,0,0,1,.46-2.68A2.81,2.81,0,0,1,289.68,163.83Z" style="fill:#263238"></path><path d="M303.87,162.2l3.94,2.17a2.37,2.37,0,0,0-1-2.53A2.84,2.84,0,0,0,303.87,162.2Z" style="fill:#263238"></path><path d="M317.5,201.58a27.14,27.14,0,0,1-14.59.71c13.7-16.29,18.17-39.57,12.65-52.81a15.84,15.84,0,0,0-11.22-9.1,12.34,12.34,0,0,1-2.25-.71c10,0,20.13-2.3,29.46,1.4,3.4,1.35,6.77,3.17,8.87,6.16,2.29,3.24,2.78,7.47,2.29,11.41-.95,7.67-5.19,14.5-9.57,20.88-3.82,5.58-8.55,11.49-11.05,17.87A7.24,7.24,0,0,1,317.5,201.58Z" style="fill:#95E392"></path><path d="M317.5,201.58a27.14,27.14,0,0,1-14.59.71c13.7-16.29,18.17-39.57,12.65-52.81a15.84,15.84,0,0,0-11.22-9.1,12.34,12.34,0,0,1-2.25-.71c10,0,20.13-2.3,29.46,1.4,3.4,1.35,6.77,3.17,8.87,6.16,2.29,3.24,2.78,7.47,2.29,11.41-.95,7.67-5.19,14.5-9.57,20.88-3.82,5.58-8.55,11.49-11.05,17.87A7.24,7.24,0,0,1,317.5,201.58Z" style="fill:#fff;opacity:0.2"></path><path d="M311.39,197.67a76.46,76.46,0,0,0,11.08-27.89,41.19,41.19,0,0,0,.34-15.33,21.7,21.7,0,0,0-7.53-13.07C331.81,151.43,327.61,176,311.39,197.67Z" style="opacity:0.2"></path><path d="M325.62,195.42l-.74-1.08c1.11,2.27-2.29,6.76-4.75,8.78l1.68,1.4a14.05,14.05,0,0,0,4.2-6.59A3.3,3.3,0,0,0,325.62,195.42Z" style="fill:#95E392"></path><path d="M324.88,194.34a2,2,0,0,0-.94-.93,13.57,13.57,0,0,0-.92,1.83s.28,3.24-4.49,7.08l1.6.8C322.59,201.1,326,196.61,324.88,194.34Z" style="fill:#95E392"></path><path d="M325.62,195.42l-.74-1.08c1.11,2.27-2.29,6.76-4.75,8.78l1.68,1.4a14.05,14.05,0,0,0,4.2-6.59A3.3,3.3,0,0,0,325.62,195.42Z" style="opacity:0.5"></path><path d="M324.88,194.34a2,2,0,0,0-.94-.93,13.57,13.57,0,0,0-.92,1.83s.28,3.24-4.49,7.08l1.6.8C322.59,201.1,326,196.61,324.88,194.34Z" style="opacity:0.30000000000000004"></path><polygon points="322.18 203.13 322.17 203.13 322.18 203.13 322.18 203.13" style="fill:#95E392"></polygon><path d="M312.9,212.55a11.65,11.65,0,0,1,5.3-9.17,3.9,3.9,0,0,1,3.57-.49l-2.55-1.47-.08,0h0a3.81,3.81,0,0,0-3.72.4,11.68,11.68,0,0,0-5.3,9.18,3.69,3.69,0,0,0,1.59,3.43h0l2.72,1.57h0A3.79,3.79,0,0,1,312.9,212.55Z" style="fill:#95E392"></path><path d="M315.5,212.78a9.08,9.08,0,0,1,4.13-7.15,2.94,2.94,0,0,1,2.94-.3,4.37,4.37,0,0,1,1,.83,3.77,3.77,0,0,0-1.35-3h0c-.13-.08-.26-.16-.4-.23a3.9,3.9,0,0,0-3.57.49,11.65,11.65,0,0,0-5.3,9.17,3.79,3.79,0,0,0,1.52,3.4,3.47,3.47,0,0,0,3.28-.08,4.76,4.76,0,0,1-1.12-.51A3,3,0,0,1,315.5,212.78Z" style="fill:#95E392"></path><path d="M323.53,206.16a4.37,4.37,0,0,0-1-.83,2.94,2.94,0,0,0-2.94.3,9.08,9.08,0,0,0-4.13,7.15,3,3,0,0,0,1.08,2.58,4.76,4.76,0,0,0,1.12.51,3.81,3.81,0,0,0,2.93,0,9.08,9.08,0,0,0,4.13-7.15A4.31,4.31,0,0,0,323.53,206.16Z" style="fill:#95E392"></path><path d="M312.9,212.55a11.65,11.65,0,0,1,5.3-9.17,3.9,3.9,0,0,1,3.57-.49l-2.55-1.47-.08,0h0a3.81,3.81,0,0,0-3.72.4,11.68,11.68,0,0,0-5.3,9.18,3.69,3.69,0,0,0,1.59,3.43h0l2.72,1.57h0A3.79,3.79,0,0,1,312.9,212.55Z" style="opacity:0.2"></path><path d="M315.5,212.78a9.08,9.08,0,0,1,4.13-7.15,2.94,2.94,0,0,1,2.94-.3,4.37,4.37,0,0,1,1,.83,3.77,3.77,0,0,0-1.35-3h0c-.13-.08-.26-.16-.4-.23a3.9,3.9,0,0,0-3.57.49,11.65,11.65,0,0,0-5.3,9.17,3.79,3.79,0,0,0,1.52,3.4,3.47,3.47,0,0,0,3.28-.08,4.76,4.76,0,0,1-1.12-.51A3,3,0,0,1,315.5,212.78Z" style="fill:#fff;opacity:0.1"></path><path d="M323.53,206.16a4.37,4.37,0,0,0-1-.83,2.94,2.94,0,0,0-2.94.3,9.08,9.08,0,0,0-4.13,7.15,3,3,0,0,0,1.08,2.58,4.76,4.76,0,0,0,1.12.51,3.81,3.81,0,0,0,2.93,0,9.08,9.08,0,0,0,4.13-7.15A4.31,4.31,0,0,0,323.53,206.16Z" style="fill:#fff;opacity:0.30000000000000004"></path><path d="M310.72,240.78h-.11a.58.58,0,0,1-.46-.68,54.21,54.21,0,0,0-2.07-27.61l-.32-.9a18.55,18.55,0,0,1-1.42-6.21c0-2.43,1.29-5.4,4-6.18a.58.58,0,0,1,.32,1.12c-2.07.59-3.16,3-3.18,5.07a17.61,17.61,0,0,0,1.35,5.81l.32.91a55.18,55.18,0,0,1,2.11,28.2A.58.58,0,0,1,310.72,240.78Z" style="fill:#fff"></path><path d="M336.39,200.18l-20.06,60.29-35.76,13.89a12.48,12.48,0,0,1-5.76.9l-9.61-1.68a6.55,6.55,0,0,0-3.89.91l-6.63,4a7.05,7.05,0,0,0-1.76,1.51l-3.25,3.84a2.44,2.44,0,0,0,.45,3.55l2,1.46a7.22,7.22,0,0,0,7.49.58l5.13-2.58,2.37.56A24,24,0,0,0,282.56,286h0l38.8-7.85A17.22,17.22,0,0,0,334,267.27s18.54-44,14.16-53.95C346.21,209,336.39,200.18,336.39,200.18Z" style="fill:#ffa8a7"></path><path d="M336.39,200.18l-20.75,59.6-35.77,13.68c6.67,3.72,7,12.06,6.33,13l37.86-7.92a14.74,14.74,0,0,0,10.76-9.22l15.2-40.3c6.57-18.07-3-24.71-13.63-28.88Z" style="fill:#95E392"></path><path d="M336.39,200.18l-20.75,59.6-35.77,13.68c6.67,3.72,7,12.06,6.33,13l37.86-7.92a14.74,14.74,0,0,0,10.76-9.22l15.2-40.3c6.57-18.07-3-24.71-13.63-28.88Z" style="fill:#fff;opacity:0.4"></path><path d="M294.58,276.44a14.34,14.34,0,0,0-5-6.7l-9.72,3.72c6.67,3.72,7,12.06,6.33,13l8.69-1.82A14.28,14.28,0,0,0,294.58,276.44Z" style="fill:#fff;opacity:0.4"></path><path d="M315.64,259.78c6.58.08,11.17,2.94,11.87,5-1.13-9.87-10.79-8.11-10.79-8.11Z" style="opacity:0.2"></path></g></svg>